<?xml version="1.0" standalone="no"?>
<!DOCTYPE svg PUBLIC "-//W3C//DTD SVG 1.1//EN" "http://www.w3.org/Graphics/SVG/1.1/DTD/svg11.dtd" >
<svg xmlns="http://www.w3.org/2000/svg">
<metadata>Generated by IcoMoon</metadata>
<defs>
<font id="scape-basic" horiz-adv-x="1024">
<font-face units-per-em="1024" ascent="960" descent="-64" />
<missing-glyph horiz-adv-x="1024" />
<glyph unicode="&#x20;" horiz-adv-x="512" d="" />
<glyph unicode="&#xe900;" glyph-name="D-Cube" d="M490.923-64c-3.584 0-7.125 0.896-10.368 2.688l-384.256 213.333c-6.741 3.755-10.965 10.88-10.965 18.645v426.667c0 7.765 4.224 14.891 10.965 18.688l384.256 213.333c6.485 3.584 14.251 3.627 20.736-0.043l383.744-213.333c6.741-3.755 10.965-10.88 10.965-18.645v-426.667c0-7.765-4.224-14.891-10.965-18.645l-383.744-213.333c-3.243-1.792-6.784-2.688-10.368-2.688zM128 183.211l362.923-201.472 362.411 201.472v401.579l-362.411 201.472-362.923-201.472v-401.579zM490.923-64c-11.776 0-21.333 9.557-21.333 21.333v414.123l-373.291 207.189c-6.997 3.925-10.965 11.221-10.965 18.731 0 3.499 0.896 7.040 2.688 10.325 5.803 10.325 18.773 13.867 29.056 8.277l373.888-207.573 373.376 207.531c10.197 5.717 23.253 2.048 29.013-8.235s2.048-23.296-8.235-29.013l-372.779-207.232v-414.123c-0.085-11.776-9.643-21.333-21.419-21.333zM490.667 832c-0.043 0-0.043 0-0.085 0-11.776 0.043-21.291 9.643-21.248 21.419l0.171 33.493-6.059-6.016c-8.32-8.32-21.845-8.32-30.165 0-4.181 4.181-6.229 9.643-6.229 15.104s2.091 10.923 6.229 15.104l42.709 42.709c3.84 3.84 8.747 5.888 13.739 6.187v0c0.043-0.128 0.853 0 1.323 0 0.896 0 1.792-0.043 2.688-0.171 4.011-0.512 7.893-2.133 11.136-4.907 0.512-0.427 0.939-0.853 1.408-1.28l42.539-42.539c8.32-8.32 8.32-21.845 0-30.165s-21.845-8.32-30.165 0l-6.443 6.443-0.213-34.133c-0.043-11.733-9.6-21.248-21.333-21.248zM960 21.333c-0.043 0-0.085 0-0.171 0h-60.16c-11.776 0-21.333 9.557-21.333 21.333s9.557 21.333 21.333 21.333h8.832l-27.563 27.563c-8.32 8.32-8.32 21.845 0 30.165s21.845 8.32 30.165 0l27.563-27.563v12.501c0 11.776 9.557 21.333 21.333 21.333s21.333-9.557 21.333-21.333v-64.043c0-0.043 0-0.043 0-0.043v-0.043c0 0 0 0 0-0.043v0c0-0.043 0-0.043 0-0.085v0c-0.085-5.205-2.005-9.984-5.163-13.653l-0.043-0.043c-0.939-1.067-2.005-2.091-3.157-2.987-3.2-2.475-7.168-4.053-11.477-4.352-0.512-0.043-0.981-0.043-1.493-0.043zM21.333 21.333c-0.512 0-0.981 0-1.493 0.043-4.309 0.299-8.235 1.877-11.477 4.352-1.152 0.896-2.219 1.92-3.157 2.987v0l-0.043 0.043c-3.157 3.669-5.077 8.448-5.163 13.653v0c0 0.043 0 0.043 0 0.085v0c0 0.043 0 0.043 0 0.043v0.043c0 0 0 0 0 0.043v60.373c0 11.776 9.557 21.333 21.333 21.333s21.333-9.557 21.333-21.333v-8.832l27.563 27.563c8.32 8.32 21.845 8.32 30.165 0s8.32-21.845 0-30.165l-27.563-27.563h8.832c11.776 0 21.333-9.557 21.333-21.333s-9.557-21.333-21.333-21.333h-60.16c-0.085 0-0.128 0-0.171 0z" />
<glyph unicode="&#xe901;" glyph-name="Accessible" d="M809.771-64c-42.453 0-78.293 30.379-85.333 72.235l-35.627 164.949c-1.92 11.307-10.752 18.816-21.248 18.816h-134.528c-82.347 0-149.333 66.987-149.333 149.333v256c0 35.285 28.715 64 64 64h50.005c28.459 0 55.253-11.093 75.435-31.232l90.539-90.496c3.925-4.011 9.429-6.272 15.061-6.272h67.627c35.285 0 64-28.715 64-64s-28.715-64-64-64h-92.629c-28.459 0-55.253 11.093-75.435 31.232l-23.936 23.936v-76.501c0-11.776 9.557-21.333 21.333-21.333h141.44c76.203 0 140.032-57.088 148.437-132.864l30.037-196.907c2.816-25.259-4.992-49.792-21.376-68.096s-39.893-28.8-64.469-28.8zM447.701 618.667c-11.776 0-21.333-9.557-21.333-21.333v-256c0-58.795 47.872-106.667 106.667-106.667h134.528c31.403 0 57.941-22.485 63.104-53.461l35.627-164.949c3.797-22.187 21.973-37.589 43.477-37.589 12.629 0 24.235 5.205 32.683 14.592s12.288 21.504 10.88 34.048l-30.037 196.907c-6.144 54.997-51.712 95.787-106.155 95.787h-141.44c-35.285 0-64 28.715-64 64v128c0 8.619 5.205 16.384 13.184 19.712 8.021 3.328 17.109 1.451 23.253-4.608l60.373-60.331c11.904-11.947 28.373-18.773 45.227-18.773h92.629c11.776 0 21.333 9.557 21.333 21.333s-9.557 21.333-21.333 21.333h-67.627c-17.067 0-33.152 6.656-45.269 18.731l-90.539 90.496c-11.904 11.947-28.373 18.773-45.227 18.773h-50.005zM469.035 704c-70.571 0-128 57.429-128 128s57.429 128 128 128 128-57.429 128-128-57.429-128-128-128zM469.035 917.333c-47.061 0-85.333-38.272-85.333-85.333s38.272-85.333 85.333-85.333 85.333 38.272 85.333 85.333-38.272 85.333-85.333 85.333zM362.368-64c-152.917 0-277.333 124.416-277.333 277.333 0 135.765 97.195 250.667 231.125 273.195 11.733 1.877 22.613-5.888 24.576-17.493s-5.888-22.613-17.493-24.576c-113.323-19.072-195.541-116.267-195.541-231.125 0-129.408 105.259-234.667 234.667-234.667 99.072 0 187.904 62.891 221.013 156.459 3.925 11.093 16.128 16.939 27.221 12.971 11.093-3.925 16.896-16.085 12.971-27.221-39.083-110.592-144.085-184.875-261.205-184.875z" />
<glyph unicode="&#xe902;" glyph-name="Active-Protection" d="M490.624-64c-3.541 0-7.125 0.896-10.325 2.688-16.128 8.917-395.008 221.611-395.008 488.021v462.635c0 8.405 4.949 16.043 12.629 19.456 7.723 3.413 16.683 2.048 22.955-3.584 43.008-38.528 98.56-59.733 156.416-59.733 78.848 0 151.979 39.253 195.669 105.003 3.925 5.931 10.624 9.515 17.749 9.515v0c7.168 0 13.824-3.584 17.792-9.557 43.563-65.749 116.693-105.003 195.541-105.003 57.216 0 112.213 20.736 155.093 58.496 9.472 10.069 30.123 6.997 35.499-6.997 1.152-3.072 1.579-6.315 1.323-9.515v-460.8c0-266.368-378.88-479.104-395.008-488.021-3.2-1.707-6.784-2.603-10.325-2.603zM127.957 846.379v-419.712c0-218.539 302.421-408.917 362.667-444.672 60.203 35.755 362.667 226.347 362.667 444.672v419.669c-44.288-28.288-95.957-43.563-149.248-43.563-83.157 0-160.939 36.949-213.419 100.181-52.395-63.189-130.176-100.181-213.333-100.181-53.333 0-105.003 15.275-149.333 43.605zM447.915 362.667v0c-5.675 0-11.093 2.261-15.104 6.229l-85.163 85.333c-8.32 8.32-8.32 21.888 0 30.165 8.32 8.32 21.845 8.32 30.165 0l70.144-70.229 155.691 155.563c8.32 8.32 21.845 8.32 30.165 0s8.32-21.845 0-30.165l-170.837-170.667c-3.968-3.968-9.387-6.229-15.061-6.229z" />
<glyph unicode="&#xe903;" glyph-name="Add-Shopping-Cart" d="M362.667-21.333c-58.837 0-106.667 47.872-106.667 106.667s47.829 106.667 106.667 106.667 106.667-47.872 106.667-106.667-47.829-106.667-106.667-106.667zM362.667 149.333c-35.285 0-64-28.715-64-64s28.715-64 64-64 64 28.715 64 64-28.715 64-64 64zM503.125 234.667h-120.875c-70.955 0-132.48 50.475-146.432 120.021l-103.979 519.979h-110.507c-11.776 0-21.333 9.557-21.333 21.333s9.557 21.333 21.333 21.333h128c10.155 0 18.901-7.168 20.907-17.152l107.435-537.088c9.899-49.707 53.888-85.76 104.576-85.76h120.875c11.776 0 21.333-9.557 21.333-21.333s-9.557-21.333-21.333-21.333zM255.957 362.667c-10.24 0-19.243 7.424-20.992 17.835l-64 384c-1.067 6.187 0.683 12.501 4.736 17.28 4.096 4.821 10.027 7.552 16.299 7.552h810.667c6.187 0 12.075-2.688 16.128-7.339s5.888-10.88 4.992-16.981l-38.059-266.283c-4.096-28.587-26.965-50.987-55.68-54.485l-58.752-7.125c-11.648-1.237-22.357 6.912-23.765 18.645-1.408 11.691 6.912 22.315 18.603 23.765l58.795 7.125c9.6 1.152 17.195 8.619 18.56 18.133l34.603 241.877h-760.917l56.533-339.029 367.061 44.501c11.392 1.493 22.315-6.912 23.765-18.645 1.408-11.691-6.912-22.315-18.603-23.765l-387.328-46.976c-0.896-0.043-1.749-0.085-2.645-0.085zM789.333-64c-129.365 0-234.667 105.259-234.667 234.667s105.301 234.667 234.667 234.667 234.667-105.259 234.667-234.667-105.301-234.667-234.667-234.667zM789.333 362.667c-105.856 0-192-86.144-192-192s86.144-192 192-192 192 86.144 192 192-86.144 192-192 192zM874.667 149.333h-170.667c-11.776 0-21.333 9.557-21.333 21.333s9.557 21.333 21.333 21.333h170.667c11.776 0 21.333-9.557 21.333-21.333s-9.557-21.333-21.333-21.333zM789.333 64c-11.776 0-21.333 9.557-21.333 21.333v170.667c0 11.776 9.557 21.333 21.333 21.333s21.333-9.557 21.333-21.333v-170.667c0-11.776-9.557-21.333-21.333-21.333z" />
<glyph unicode="&#xe904;" glyph-name="Add" d="M490.667-64c-270.549 0-490.667 220.117-490.667 490.667s220.117 490.667 490.667 490.667 490.667-220.117 490.667-490.667-220.117-490.667-490.667-490.667zM490.667 874.667c-247.040 0-448-200.96-448-448s200.96-448 448-448 448 200.96 448 448-200.96 448-448 448zM746.667 405.333h-512c-11.776 0-21.333 9.557-21.333 21.333s9.557 21.333 21.333 21.333h512c11.776 0 21.333-9.557 21.333-21.333s-9.557-21.333-21.333-21.333zM490.667 149.333c-11.776 0-21.333 9.557-21.333 21.333v512c0 11.776 9.557 21.333 21.333 21.333s21.333-9.557 21.333-21.333v-512c0-11.776-9.557-21.333-21.333-21.333z" />
<glyph unicode="&#xe905;" glyph-name="Adjustments" d="M192 533.333h-85.333c-58.795 0-106.667 47.872-106.667 106.667v85.333c0 58.795 47.872 106.667 106.667 106.667h85.333c58.795 0 106.667-47.872 106.667-106.667v-85.333c0-58.795-47.872-106.667-106.667-106.667zM106.667 789.333c-35.285 0-64-28.715-64-64v-85.333c0-35.285 28.715-64 64-64h85.333c35.285 0 64 28.715 64 64v85.333c0 35.285-28.715 64-64 64h-85.333zM874.667 21.333h-85.333c-58.795 0-106.667 47.872-106.667 106.667v85.333c0 58.795 47.872 106.667 106.667 106.667h85.333c58.795 0 106.667-47.872 106.667-106.667v-85.333c0-58.795-47.872-106.667-106.667-106.667zM789.333 277.333c-35.285 0-64-28.715-64-64v-85.333c0-35.285 28.715-64 64-64h85.333c35.285 0 64 28.715 64 64v85.333c0 35.285-28.715 64-64 64h-85.333zM533.333 277.333h-85.333c-58.795 0-106.667 47.872-106.667 106.667v85.333c0 58.795 47.872 106.667 106.667 106.667h85.333c58.795 0 106.667-47.872 106.667-106.667v-85.333c0-58.795-47.872-106.667-106.667-106.667zM448 533.333c-35.285 0-64-28.715-64-64v-85.333c0-35.285 28.715-64 64-64h85.333c35.285 0 64 28.715 64 64v85.333c0 35.285-28.715 64-64 64h-85.333zM149.333 789.333c-11.776 0-21.333 9.557-21.333 21.333v85.333c0 11.776 9.557 21.333 21.333 21.333s21.333-9.557 21.333-21.333v-85.333c0-11.776-9.557-21.333-21.333-21.333zM149.333-64c-11.776 0-21.333 9.557-21.333 21.333v597.333c0 11.776 9.557 21.333 21.333 21.333s21.333-9.557 21.333-21.333v-597.333c0-11.776-9.557-21.333-21.333-21.333zM490.667-64c-11.776 0-21.333 9.557-21.333 21.333v341.333c0 11.776 9.557 21.333 21.333 21.333s21.333-9.557 21.333-21.333v-341.333c0-11.776-9.557-21.333-21.333-21.333zM490.667 533.333c-11.776 0-21.333 9.557-21.333 21.333v341.333c0 11.776 9.557 21.333 21.333 21.333s21.333-9.557 21.333-21.333v-341.333c0-11.776-9.557-21.333-21.333-21.333zM832 277.333c-11.776 0-21.333 9.557-21.333 21.333v597.333c0 11.776 9.557 21.333 21.333 21.333s21.333-9.557 21.333-21.333v-597.333c0-11.776-9.557-21.333-21.333-21.333zM832-64c-11.776 0-21.333 9.557-21.333 21.333v85.333c0 11.776 9.557 21.333 21.333 21.333s21.333-9.557 21.333-21.333v-85.333c0-11.776-9.557-21.333-21.333-21.333z" />
<glyph unicode="&#xe906;" glyph-name="Airplane" d="M704-64c-1.536 0-3.115 0.171-4.608 0.512l-187.392 41.6-187.392-41.643c-6.229-1.408-12.885 0.128-17.963 4.181-5.035 4.096-7.979 10.197-7.979 16.683v42.667c0 7.168 3.584 13.867 9.6 17.792l149.376 98.688-6.784 67.029c-6.571 65.621-11.989 119.552-15.957 184.192l-402.048-257.664c-6.528-4.267-14.891-4.523-21.717-0.768-6.869 3.712-11.136 10.923-11.136 18.731v49.963c0 28.459 11.093 55.253 31.232 75.435l395.435 395.435v175.36c0 27.691 6.144 55.595 17.792 80.725l9.941 18.987c10.112 21.888 32.384 36.096 57.6 36.096s47.488-14.208 58.069-37.12l9.003-17.024c12.117-26.069 18.261-53.973 18.261-81.664v-175.36l395.563-395.563c20.053-20.053 31.104-46.805 31.104-75.307v-49.963c0-7.808-4.267-14.976-11.093-18.688-6.784-3.755-15.104-3.499-21.717 0.768l-402.091 257.621c-3.968-64.597-9.344-118.485-15.957-184.021l-6.784-67.285 149.376-98.517c6.016-4.053 9.6-10.752 9.6-17.877v-42.667c0-6.485-2.944-12.587-7.979-16.64-3.84-3.072-8.533-4.693-13.355-4.693zM512 21.333c1.536 0 3.115-0.171 4.608-0.512l166.059-36.907v4.565l-150.613 99.328c-6.656 4.395-10.283 12.117-9.472 20.011l8.107 80c8.021 79.957 13.781 137.685 17.792 218.496 0.384 7.595 4.779 14.421 11.563 17.92 6.741 3.456 14.933 3.072 21.291-0.981l400-256.256v10.965c0 17.109-6.613 33.109-18.603 45.141l-401.792 401.792c-4.011 4.011-6.272 9.429-6.272 15.104v184.192c0 21.547-4.779 43.264-13.824 62.763l-9.003 17.067c-5.803 12.416-16.64 13.312-19.84 13.312s-14.037-0.896-19.371-12.373l-9.941-18.987c-8.576-18.517-13.355-40.235-13.355-61.781v-184.192c0-5.675-2.261-11.093-6.229-15.104l-401.664-401.707c-11.947-11.904-18.773-28.416-18.773-45.227v-10.965l400.043 256.341c6.4 4.096 14.507 4.437 21.291 0.981 6.784-3.499 11.179-10.325 11.563-17.92 3.968-80.853 9.771-138.667 17.792-218.667l8.064-79.701c0.853-7.936-2.816-15.659-9.472-20.011l-150.613-99.541v-4.565l166.059 36.907c1.493 0.341 3.072 0.512 4.608 0.512z" />
<glyph unicode="&#xe907;" glyph-name="Alarm" d="M490.667 21.333c-223.488 0-405.333 181.845-405.333 405.333s181.845 405.333 405.333 405.333 405.333-181.845 405.333-405.333-181.845-405.333-405.333-405.333zM490.667 789.333c-199.979 0-362.667-162.688-362.667-362.667s162.688-362.667 362.667-362.667 362.667 162.688 362.667 362.667-162.688 362.667-362.667 362.667zM47.616 558.805c-7.509 0-14.805 3.968-18.688 11.051-18.944 34.389-28.928 73.387-28.928 112.811 0 129.408 105.301 234.667 234.667 234.667 39.296 0 78.293-9.984 112.811-28.928 10.325-5.675 14.123-18.645 8.448-28.971-5.675-10.368-18.731-14.080-28.971-8.448-28.245 15.488-60.117 23.68-92.288 23.68-105.856 0-192-86.144-192-192 0-32.256 8.149-64.128 23.68-92.245 5.675-10.325 1.92-23.296-8.448-28.971-3.243-1.792-6.784-2.645-10.283-2.645zM933.717 558.805c-3.499 0-7.040 0.853-10.283 2.645-10.325 5.675-14.080 18.645-8.405 28.971 15.488 28.117 23.637 59.989 23.637 92.245 0 105.856-86.144 192-192 192-32.171 0-64.043-8.192-92.288-23.68-10.24-5.547-23.296-1.92-28.971 8.448-5.675 10.325-1.877 23.296 8.448 28.971 34.517 18.944 73.515 28.928 112.811 28.928 129.365 0 234.667-105.259 234.667-234.667 0-39.424-9.984-78.421-28.928-112.853-3.925-7.040-11.179-11.008-18.688-11.008zM618.667 277.333c-5.461 0-10.923 2.091-15.104 6.229l-128 128c-3.968 4.011-6.229 9.429-6.229 15.104v256c0 11.776 9.557 21.333 21.333 21.333s21.333-9.557 21.333-21.333v-247.168l121.771-121.771c8.32-8.32 8.32-21.845 0-30.165-4.181-4.139-9.643-6.229-15.104-6.229z" />
<glyph unicode="&#xe908;" glyph-name="Anchor" d="M490.667 746.667c-58.795 0-106.667 47.872-106.667 106.667s47.872 106.667 106.667 106.667 106.667-47.872 106.667-106.667-47.872-106.667-106.667-106.667zM490.667 917.333c-35.285 0-64-28.715-64-64s28.715-64 64-64 64 28.715 64 64-28.715 64-64 64zM661.333 406.229h-341.333c-11.776 0-21.333 9.557-21.333 21.333s9.557 21.333 21.333 21.333h341.333c11.776 0 21.333-9.557 21.333-21.333s-9.557-21.333-21.333-21.333zM490.667-42.667c-11.776 0-21.333 9.557-21.333 21.333v789.333c0 11.776 9.557 21.333 21.333 21.333s21.333-9.557 21.333-21.333v-789.333c0-11.776-9.557-21.333-21.333-21.333zM490.667-64c-194.048 0-380.757 101.803-487.211 265.728-4.949 7.595-4.523 17.493 1.024 24.661s15.019 10.069 23.637 7.168l128-42.667c11.179-3.712 17.195-15.787 13.483-26.965s-15.701-17.195-26.965-13.483l-63.787 21.248c101.632-120.363 254.123-193.024 411.819-193.024 164.779 0 315.349 71.424 414.208 193.792l-66.133-22.059c-11.221-3.712-23.253 2.304-26.965 13.483s2.304 23.253 13.483 26.965l128 42.667c8.533 2.901 17.92 0.043 23.509-6.997 5.547-7.083 6.144-16.853 1.365-24.491-103.467-166.528-285.696-266.027-487.467-266.027z" />
<glyph unicode="&#xe909;" glyph-name="Announcement" d="M832-42.667c-5.547 0-11.008 2.176-15.104 6.229l-207.061 207.104h-460.501c-82.347 0-149.333 66.987-149.333 149.333v469.333c0 82.347 66.987 149.333 149.333 149.333h682.667c82.347 0 149.333-66.987 149.333-149.333v-469.333c0-75.093-55.723-137.429-128-147.84v-193.493c0-8.619-5.205-16.427-13.184-19.712-2.645-1.067-5.419-1.621-8.149-1.621zM149.333 896c-58.795 0-106.667-47.829-106.667-106.667v-469.333c0-58.837 47.872-106.667 106.667-106.667h469.333c5.675 0 11.093-2.261 15.104-6.229l176.896-176.939v161.835c0 11.776 9.557 21.333 21.333 21.333 58.795 0 106.667 47.829 106.667 106.667v469.333c0 58.837-47.872 106.667-106.667 106.667h-682.667zM490.667 298.667c-35.285 0-64 28.715-64 64s28.715 64 64 64 64-28.715 64-64-28.715-64-64-64zM490.667 384c-11.776 0-21.333-9.6-21.333-21.333s9.557-21.333 21.333-21.333 21.333 9.6 21.333 21.333-9.557 21.333-21.333 21.333zM490.667 469.333c-35.285 0-64.64 27.349-67.115 62.251l-18.048 210.219c-1.237 18.005 4.949 35.541 17.024 48.469 12.075 12.971 29.099 20.395 46.805 20.395h42.667c17.707 0 34.773-7.424 46.848-20.395s18.261-30.507 16.981-48.171l-18.389-210.859c-2.432-34.56-31.787-61.909-66.773-61.909zM469.333 768c-5.973 0-11.52-2.432-15.616-6.784s-6.101-10.069-5.675-16.085l18.005-210.219c0.939-13.013 11.563-22.912 24.277-22.912 13.013 0 23.68 9.899 24.576 22.571l18.432 210.901c0.384 5.675-1.621 11.392-5.717 15.744s-9.643 6.784-15.616 6.784h-42.667z" />
<glyph unicode="&#xe90a;" glyph-name="Archive-File" d="M874.667-64h-725.333c-82.347 0-149.333 66.987-149.333 149.333v277.333c0 32 9.984 62.592 28.928 88.32l59.776 93.141c6.357 9.899 19.584 12.757 29.483 6.4s12.8-19.584 6.4-29.483l-60.544-94.208c-14.037-19.2-21.376-41.643-21.376-64.171v-277.333c0-58.837 47.829-106.667 106.667-106.667h725.333c58.837 0 106.667 47.829 106.667 106.667v281.259c0 21.077-6.229 41.557-17.92 59.179l-63.829 95.744c-6.528 9.771-3.883 23.040 5.931 29.568 9.685 6.485 22.997 3.968 29.568-5.931l63.829-95.744c16.427-24.661 25.088-53.291 25.088-82.816v-281.259c0-82.347-66.987-149.333-149.333-149.333zM661.333 149.333h-298.667c-82.347 0-149.333 66.987-149.333 149.333 0 35.285-28.715 64-64 64h-106.667c-11.776 0-21.333 9.557-21.333 21.333s9.557 21.333 21.333 21.333h106.667c58.837 0 106.667-47.829 106.667-106.667s47.829-106.667 106.667-106.667h298.667c58.837 0 106.667 47.829 106.667 106.667 0 11.776 9.557 21.333 21.333 21.333s21.333-9.557 21.333-21.333c0-82.347-66.987-149.333-149.333-149.333zM789.333 277.333c-11.776 0-21.333 9.557-21.333 21.333 0 58.837 47.829 106.667 106.667 106.667h106.667c11.776 0 21.333-9.557 21.333-21.333s-9.557-21.333-21.333-21.333h-106.667c-35.285 0-64-28.715-64-64 0-11.776-9.557-21.333-21.333-21.333zM917.333 362.667c-11.776 0-21.333 9.557-21.333 21.333v234.667h-234.667c-35.285 0-64 28.715-64 64v234.667h-448c-11.733 0-21.333-9.6-21.333-21.333v-512c0-11.776-9.557-21.333-21.333-21.333s-21.333 9.557-21.333 21.333v512c0 35.285 28.715 64 64 64h469.333c11.776 0 21.333-9.557 21.333-21.333v-256c0-11.733 9.6-21.333 21.333-21.333h256c11.776 0 21.333-9.557 21.333-21.333v-256c0-11.776-9.557-21.333-21.333-21.333zM917.333 618.667c-5.461 0-10.923 2.091-15.104 6.229l-298.667 298.667c-8.32 8.32-8.32 21.845 0 30.165s21.845 8.32 30.165 0l298.667-298.667c8.32-8.32 8.32-21.845 0-30.165-4.139-4.139-9.6-6.229-15.061-6.229z" />
<glyph unicode="&#xe90b;" glyph-name="Archive" d="M874.667-63.616h-725.333c-82.347 0-149.333 66.987-149.333 149.333v490.667c0 31.829 9.856 62.208 28.587 87.893l137.685 208.981c35.669 54.101 95.616 86.357 160.384 86.357h394.197c50.005 0 96.469-24.875 124.245-66.517l153.813-230.741c16.427-24.661 25.088-53.291 25.088-82.816v-493.824c0-82.347-66.987-149.333-149.333-149.333zM326.613 916.949c-50.389 0-96.981-25.131-124.757-67.2l-137.899-209.408c-0.213-0.299-0.427-0.597-0.64-0.896-13.525-18.389-20.651-40.192-20.651-63.061v-490.667c0-58.837 47.829-106.667 106.667-106.667h725.333c58.837 0 106.667 47.829 106.667 106.667v493.824c0 21.077-6.229 41.557-17.92 59.179l-153.813 230.741c-19.84 29.739-53.035 47.488-88.747 47.488h-394.24zM46.123 652.075v0zM661.333 149.717h-298.667c-82.347 0-149.333 66.987-149.333 149.333v213.333c0 34.859-28.373 63.232-63.232 63.232h-107.435c-11.776 0-21.333 9.557-21.333 21.333s9.557 21.333 21.333 21.333h107.435c58.411 0 105.899-47.488 105.899-105.899v-213.333c0-58.837 47.829-106.667 106.667-106.667h298.667c58.837 0 106.667 47.829 106.667 106.667v212.565c0 58.837 47.829 106.667 106.667 106.667h106.667c11.776 0 21.333-9.557 21.333-21.333s-9.557-21.333-21.333-21.333h-106.667c-35.285 0-64-28.715-64-64v-212.565c0-82.347-66.987-149.333-149.333-149.333zM725.333 576.384h-426.667c-11.776 0-21.333 9.557-21.333 21.333s9.557 21.333 21.333 21.333h426.667c11.776 0 21.333-9.557 21.333-21.333s-9.557-21.333-21.333-21.333zM704 491.051h-384c-11.776 0-21.333 9.557-21.333 21.333s9.557 21.333 21.333 21.333h384c11.776 0 21.333-9.557 21.333-21.333s-9.557-21.333-21.333-21.333zM704 405.717h-384c-11.776 0-21.333 9.557-21.333 21.333s9.557 21.333 21.333 21.333h384c11.776 0 21.333-9.557 21.333-21.333s-9.557-21.333-21.333-21.333zM704 320.384h-384c-11.776 0-21.333 9.557-21.333 21.333s9.557 21.333 21.333 21.333h384c11.776 0 21.333-9.557 21.333-21.333s-9.557-21.333-21.333-21.333zM682.667 235.051h-341.333c-11.776 0-21.333 9.557-21.333 21.333s9.557 21.333 21.333 21.333h341.333c11.776 0 21.333-9.557 21.333-21.333s-9.557-21.333-21.333-21.333z" />
<glyph unicode="&#xe90c;" glyph-name="Assignment" d="M789.333-64h-554.667c-35.285 0-64 28.715-64 64v768c0 35.285 28.715 64 64 64h85.333c11.776 0 21.333-9.557 21.333-21.333s-9.557-21.333-21.333-21.333h-85.333c-11.733 0-21.333-9.6-21.333-21.333v-768c0-11.733 9.6-21.333 21.333-21.333h554.667c11.733 0 21.333 9.6 21.333 21.333v768c0 11.733-9.6 21.333-21.333 21.333h-85.333c-11.776 0-21.333 9.557-21.333 21.333s9.557 21.333 21.333 21.333h85.333c35.285 0 64-28.715 64-64v-768c0-35.285-28.715-64-64-64zM704 746.667h-384c-11.776 0-21.333 9.557-21.333 21.333v42.667c0 35.285 28.715 64 64 64h64c0 47.061 38.272 85.333 85.333 85.333s85.333-38.272 85.333-85.333h64c35.285 0 64-28.715 64-64v-42.667c0-11.776-9.557-21.333-21.333-21.333zM341.333 789.333h341.333v21.333c0 11.733-9.6 21.333-21.333 21.333h-85.333c-11.776 0-21.333 9.557-21.333 21.333v21.333c0 23.552-19.115 42.667-42.667 42.667s-42.667-19.115-42.667-42.667v-21.333c0-11.776-9.557-21.333-21.333-21.333h-85.333c-11.733 0-21.333-9.6-21.333-21.333v-21.333zM341.333 426.667c0-11.782-9.551-21.333-21.333-21.333s-21.333 9.551-21.333 21.333c0 11.782 9.551 21.333 21.333 21.333s21.333-9.551 21.333-21.333zM341.333 298.667c0-11.782-9.551-21.333-21.333-21.333s-21.333 9.551-21.333 21.333c0 11.782 9.551 21.333 21.333 21.333s21.333-9.551 21.333-21.333zM341.333 170.667c0-11.782-9.551-21.333-21.333-21.333s-21.333 9.551-21.333 21.333c0 11.782 9.551 21.333 21.333 21.333s21.333-9.551 21.333-21.333zM704 405.333h-298.667c-11.776 0-21.333 9.557-21.333 21.333s9.557 21.333 21.333 21.333h298.667c11.776 0 21.333-9.557 21.333-21.333s-9.557-21.333-21.333-21.333zM341.333 554.667c0-11.782-9.551-21.333-21.333-21.333s-21.333 9.551-21.333 21.333c0 11.782 9.551 21.333 21.333 21.333s21.333-9.551 21.333-21.333zM704 533.333h-298.667c-11.776 0-21.333 9.557-21.333 21.333s9.557 21.333 21.333 21.333h298.667c11.776 0 21.333-9.557 21.333-21.333s-9.557-21.333-21.333-21.333zM704 277.333h-298.667c-11.776 0-21.333 9.557-21.333 21.333s9.557 21.333 21.333 21.333h298.667c11.776 0 21.333-9.557 21.333-21.333s-9.557-21.333-21.333-21.333zM704 149.333h-298.667c-11.776 0-21.333 9.557-21.333 21.333s9.557 21.333 21.333 21.333h298.667c11.776 0 21.333-9.557 21.333-21.333s-9.557-21.333-21.333-21.333z" />
<glyph unicode="&#xe90d;" glyph-name="At" d="M512-64c-282.325 0-512 229.675-512 512s229.675 512 512 512 512-229.675 512-512c0-122.112-101.376-213.333-192-213.333-95.573 0-192 52.779-192 170.667l43.008 238.464c2.133 11.648 13.355 19.371 24.832 17.152 11.563-2.091 19.243-13.227 17.152-24.789l-42.667-234.667c0.341-90.624 80.811-124.16 149.675-124.16 69.035 0 149.333 74.539 149.333 170.667 0 258.773-210.56 469.333-469.333 469.333s-469.333-210.56-469.333-469.333 210.56-469.333 469.333-469.333c107.221 0 208.128 35.2 291.84 101.76 9.259 7.296 22.656 5.845 29.995-3.413 7.339-9.216 5.803-22.613-3.413-29.952-91.349-72.661-201.472-111.061-318.421-111.061zM490.667 234.667c-55.68 0-107.136 26.667-141.141 73.088-35.712 48.725-46.379 111.531-28.544 168.021 28.715 90.965 94.891 155.648 181.547 177.451 74.112 18.688 150.613 2.688 194.987-40.619 8.448-8.192 8.619-21.717 0.427-30.165-8.277-8.491-21.803-8.576-30.165-0.384-33.536 32.683-95.744 44.672-154.88 29.781-42.283-10.624-118.187-44.117-151.253-148.907-13.739-43.563-5.419-92.16 22.229-129.963 25.941-35.371 64.896-55.637 106.795-55.637 87.168 0 137.429 79.445 149.888 132.864 2.688 11.435 13.824 18.517 25.685 15.915 11.477-2.688 18.603-14.165 15.915-25.643-19.328-82.389-91.221-165.803-191.488-165.803z" />
<glyph unicode="&#xe90e;" glyph-name="Audio" d="M320 42.453c-11.776 0-21.333 9.557-21.333 21.333v649.344c0 26.965 17.067 51.2 42.496 60.288l512 182.869c19.541 7.040 41.387 4.011 58.411-7.979 16.939-11.989 27.093-31.573 27.093-52.309v-682.88c0-11.776-9.557-21.333-21.333-21.333s-21.333 9.557-21.333 21.333v682.88c0 7.040-3.285 13.355-9.045 17.451s-12.885 4.992-19.499 2.688l-512-182.869c-8.448-3.072-14.123-11.136-14.123-20.139v-649.344c0-11.819-9.557-21.333-21.333-21.333zM320 533.333c-8.789 0-16.981 5.419-20.096 14.165-3.968 11.051 1.835 23.253 12.928 27.221l597.333 213.333c10.965 4.011 23.296-1.835 27.264-12.928s-1.792-23.296-12.928-27.264l-597.333-213.333c-2.347-0.811-4.779-1.195-7.168-1.195zM166.955-64.128c-60.757 0-110.293 28.032-121.856 73.685-5.504 21.845-1.536 44.928 11.563 66.688 20.395 33.92 61.269 61.227 109.312 73.003 82.347 20.224 158.293-9.387 173.013-67.328 5.504-21.845 1.536-44.928-11.563-66.688-20.395-33.92-61.269-61.227-109.312-73.003-17.536-4.309-34.773-6.357-51.157-6.357zM216.747 112.853c-13.013 0-26.752-1.621-40.619-5.035-36.693-9.003-68.437-29.525-82.901-53.547-4.949-8.235-10.155-20.907-6.741-34.261 8.533-33.792 64.171-50.517 121.472-36.352 36.693 9.003 68.437 29.525 82.901 53.547 4.949 8.235 10.155 20.907 6.741 34.261-6.528 25.6-40.064 41.387-80.853 41.387zM764.288 63.872c-60.757 0-110.293 28.032-121.856 73.685-5.504 21.845-1.536 44.928 11.563 66.688 20.395 33.92 61.269 61.227 109.312 73.003 82.261 20.267 158.336-9.387 173.013-67.328 5.504-21.845 1.536-44.928-11.563-66.688-20.395-33.92-61.269-61.227-109.312-73.003-17.536-4.309-34.773-6.357-51.157-6.357zM814.080 240.853c-13.013 0-26.752-1.621-40.619-5.035-36.693-9.003-68.437-29.525-82.901-53.547-4.949-8.235-10.155-20.907-6.741-34.261 8.533-33.792 64.171-50.517 121.472-36.352 36.693 9.003 68.437 29.525 82.901 53.547 4.949 8.235 10.155 20.907 6.741 34.261-6.528 25.6-40.064 41.387-80.853 41.387z" />
<glyph unicode="&#xe90f;" glyph-name="Back-Arrow" d="M490.667-21.333c-5.461 0-10.923 2.091-15.104 6.229l-469.333 469.333c-8.32 8.32-8.32 21.845 0 30.165l469.333 469.333c8.32 8.32 21.845 8.32 30.165 0l170.667-170.667c8.32-8.32 8.32-21.845 0-30.165l-91.563-91.563h417.835c11.776 0 21.333-9.557 21.333-21.333v-341.333c0-11.776-9.557-21.333-21.333-21.333h-417.835l91.563-91.563c8.32-8.32 8.32-21.845 0-30.165l-170.667-170.667c-4.139-4.181-9.6-6.272-15.061-6.272zM51.499 469.333l439.168-439.168 140.501 140.501-112.896 112.896c-6.101 6.101-7.936 15.275-4.608 23.253s11.051 13.184 19.669 13.184h448v298.667h-448c-8.619 0-16.427 5.205-19.712 13.184s-1.451 17.152 4.608 23.253l112.939 112.896-140.501 140.501-439.168-439.168z" />
<glyph unicode="&#xe910;" glyph-name="Banknote" d="M724.864 148.523c-79.616 0-159.189 7.509-238.123 22.528-146.432 27.819-295.125 29.013-441.856 3.413l-19.84-3.456c-6.272-1.024-12.587 0.64-17.408 4.693-4.864 4.011-7.637 10.027-7.637 16.299v554.667c0 10.368 7.467 19.243 17.664 21.035l19.84 3.456c151.893 26.453 305.664 25.259 457.088-3.541 146.432-27.819 295.125-28.971 441.856-3.413l19.84 3.456c6.315 1.024 12.587-0.64 17.408-4.693 4.864-4.011 7.637-10.027 7.637-16.299v-554.667c0-10.368-7.467-19.243-17.664-21.035l-19.84-3.456c-72.704-12.672-145.877-18.987-218.965-18.987zM256.469 235.477c79.616 0 159.189-7.509 238.123-22.528 146.432-27.819 295.125-28.971 441.856-3.413l2.219 0.384v511.403c-150.187-25.557-302.251-24.021-451.925 4.395-146.432 27.819-295.125 28.971-441.899 3.371l-2.176-0.341v-511.36c70.997 12.032 142.421 18.091 213.803 18.091zM724.224 256c-6.869 0-13.696 0.043-20.565 0.171-11.776 0.171-21.163 9.899-20.992 21.675 0.171 11.648 9.728 20.992 21.333 20.992 0.085 0 0.213 0 0.341 0 41.728-0.725 83.968 0.811 125.312 4.352 11.989 1.109 22.059-7.68 23.083-19.413s-7.68-22.101-19.413-23.083c-36.011-3.115-72.619-4.693-109.099-4.693zM149.291 635.563c-10.965 0-20.267 8.405-21.248 19.499-1.024 11.733 7.68 22.101 19.413 23.083 43.008 3.712 86.784 5.12 130.219 4.523 11.776-0.213 21.163-9.899 20.992-21.675-0.171-11.691-9.728-20.992-21.333-20.992-0.085 0-0.213 0-0.341 0-41.984 0.811-84.309-0.768-125.867-4.352-0.64-0.043-1.237-0.085-1.835-0.085zM490.624 319.829c-56.917 0-102.741 34.176-106.539 79.445-0.981 11.733 7.723 22.059 19.456 23.040 11.776 1.152 22.059-7.723 23.040-19.456 1.877-22.272 30.592-40.363 64-40.363 34.731 0 64.043 19.541 64.043 42.667 0 20.821-20.224 34.219-63.616 42.24l-4.608 0.853c-69.205 12.757-102.4 41.088-102.4 84.907 0 47.061 47.872 85.333 106.709 85.333 56.917 0 102.699-34.133 106.539-79.445 0.981-11.733-7.723-22.059-19.456-23.040-11.477-1.451-22.059 7.723-23.040 19.456-1.877 22.229-30.592 40.363-64 40.363-34.731 0-64.043-19.541-64.043-42.667 0-20.821 20.267-34.219 63.701-42.24l4.693-0.896c69.12-12.757 102.272-41.045 102.272-84.907-0.043-47.019-47.915-85.291-106.752-85.291zM490.667 298.667c-11.776 0-21.333 9.557-21.333 21.333v298.667c0 11.776 9.557 21.333 21.333 21.333s21.333-9.557 21.333-21.333v-298.667c0-11.776-9.557-21.333-21.333-21.333z" />
<glyph unicode="&#xe911;" glyph-name="Bar-Chart-2" d="M1002.667-64h-981.333c-11.776 0-21.333 9.557-21.333 21.333s9.557 21.333 21.333 21.333h981.333c11.776 0 21.333-9.557 21.333-21.333s-9.557-21.333-21.333-21.333zM192-64h-128c-11.776 0-21.333 9.557-21.333 21.333v256c0 11.776 9.557 21.333 21.333 21.333h128c11.776 0 21.333-9.557 21.333-21.333v-256c0-11.776-9.557-21.333-21.333-21.333zM85.333-21.333h85.333v213.333h-85.333v-213.333zM448-64h-128c-11.776 0-21.333 9.557-21.333 21.333v469.333c0 11.776 9.557 21.333 21.333 21.333h128c11.776 0 21.333-9.557 21.333-21.333v-469.333c0-11.776-9.557-21.333-21.333-21.333zM341.333-21.333h85.333v426.667h-85.333v-426.667zM704-64h-128c-11.776 0-21.333 9.557-21.333 21.333v384c0 11.776 9.557 21.333 21.333 21.333h128c11.776 0 21.333-9.557 21.333-21.333v-384c0-11.776-9.557-21.333-21.333-21.333zM597.333-21.333h85.333v341.333h-85.333v-341.333zM960-64h-128c-11.776 0-21.333 9.557-21.333 21.333v640c0 11.776 9.557 21.333 21.333 21.333h128c11.776 0 21.333-9.557 21.333-21.333v-640c0-11.776-9.557-21.333-21.333-21.333zM853.333-21.333h85.333v597.333h-85.333v-597.333zM128 405.333c-47.061 0-85.333 38.272-85.333 85.333s38.272 85.333 85.333 85.333 85.333-38.272 85.333-85.333-38.272-85.333-85.333-85.333zM128 533.333c-23.552 0-42.667-19.157-42.667-42.667s19.115-42.667 42.667-42.667 42.667 19.157 42.667 42.667-19.115 42.667-42.667 42.667zM384 618.667c-47.061 0-85.333 38.272-85.333 85.333s38.272 85.333 85.333 85.333 85.333-38.272 85.333-85.333-38.272-85.333-85.333-85.333zM384 746.667c-23.552 0-42.667-19.157-42.667-42.667s19.115-42.667 42.667-42.667 42.667 19.157 42.667 42.667-19.115 42.667-42.667 42.667zM640 533.333c-47.061 0-85.333 38.272-85.333 85.333s38.272 85.333 85.333 85.333 85.333-38.272 85.333-85.333-38.272-85.333-85.333-85.333zM640 661.333c-23.552 0-42.667-19.157-42.667-42.667s19.115-42.667 42.667-42.667 42.667 19.157 42.667 42.667-19.115 42.667-42.667 42.667zM896 789.333c-47.061 0-85.333 38.272-85.333 85.333s38.272 85.333 85.333 85.333 85.333-38.272 85.333-85.333-38.272-85.333-85.333-85.333zM896 917.333c-23.552 0-42.667-19.157-42.667-42.667s19.115-42.667 42.667-42.667 42.667 19.157 42.667 42.667-19.115 42.667-42.667 42.667zM685.269 642.603c-5.461 0-10.923 2.091-15.104 6.229-8.32 8.32-8.32 21.845 0 30.165l165.547 165.547c8.32 8.32 21.845 8.32 30.165 0s8.32-21.845 0-30.165l-165.547-165.547c-4.181-4.181-9.643-6.229-15.061-6.229zM582.571 626.048c-1.92 0-3.883 0.256-5.845 0.811l-137.045 39.083c-11.307 3.243-17.877 15.019-14.635 26.368 3.2 11.349 14.848 18.005 26.325 14.677l137.045-39.083c11.349-3.243 17.92-15.061 14.677-26.368-2.688-9.387-11.221-15.488-20.523-15.488zM173.227 514.56c-6.229 0-12.459 2.731-16.683 8.021-7.381 9.216-5.845 22.613 3.371 29.995l160.853 128.256c9.216 7.296 22.613 5.803 29.952-3.413 7.381-9.216 5.845-22.613-3.371-29.995l-160.853-128.256c-3.925-3.072-8.619-4.608-13.269-4.608z" />
<glyph unicode="&#xe912;" glyph-name="Bar-Chart" d="M1002.667-64h-981.333c-11.776 0-21.333 9.557-21.333 21.333v981.333c0 11.776 9.557 21.333 21.333 21.333s21.333-9.557 21.333-21.333v-960h960c11.776 0 21.333-9.557 21.333-21.333s-9.557-21.333-21.333-21.333zM320 21.333h-213.333c-11.776 0-21.333 9.557-21.333 21.333v384c0 11.776 9.557 21.333 21.333 21.333h213.333c11.776 0 21.333-9.557 21.333-21.333v-384c0-11.776-9.557-21.333-21.333-21.333zM128 64h170.667v341.333h-170.667v-341.333zM661.333 21.333h-213.333c-11.776 0-21.333 9.557-21.333 21.333v640c0 11.776 9.557 21.333 21.333 21.333h213.333c11.776 0 21.333-9.557 21.333-21.333v-640c0-11.776-9.557-21.333-21.333-21.333zM469.333 64h170.667v597.333h-170.667v-597.333zM1002.667 21.333h-213.333c-11.776 0-21.333 9.557-21.333 21.333v896c0 11.776 9.557 21.333 21.333 21.333h213.333c11.776 0 21.333-9.557 21.333-21.333v-896c0-11.776-9.557-21.333-21.333-21.333zM810.667 64h170.667v853.333h-170.667v-853.333z" />
<glyph unicode="&#xe913;" glyph-name="Battery-Charge" d="M832 192h-725.333c-58.795 0-106.667 47.872-106.667 106.667v256c0 58.795 47.872 106.667 106.667 106.667h725.333c58.795 0 106.667-47.872 106.667-106.667v-21.333h21.333c35.285 0 64-28.715 64-64v-85.333c0-35.285-28.715-64-64-64h-21.333v-21.333c0-58.795-47.872-106.667-106.667-106.667zM106.667 618.667c-35.285 0-64-28.715-64-64v-256c0-35.285 28.715-64 64-64h725.333c35.285 0 64 28.715 64 64v42.667c0 11.776 9.557 21.333 21.333 21.333h42.667c11.776 0 21.333 9.557 21.333 21.333v85.333c0 11.776-9.557 21.333-21.333 21.333h-42.667c-11.776 0-21.333 9.557-21.333 21.333v42.667c0 35.285-28.715 64-64 64h-725.333zM448 277.333c-3.584 0-7.211 0.896-10.581 2.816-10.24 5.845-13.781 18.859-7.936 29.099l57.643 100.864-75.008-25.003c-8.363-2.859-17.621-0.128-23.253 6.699-5.589 6.827-6.4 16.427-2.005 24.107l85.333 149.333c5.845 10.24 18.816 13.867 29.099 7.936 10.24-5.845 13.781-18.859 7.936-29.099l-57.643-100.864 75.008 25.003c8.491 2.773 17.664 0.128 23.253-6.699s6.4-16.427 2.005-24.107l-85.333-149.333c-3.925-6.912-11.136-10.752-18.517-10.752zM448 277.333c-3.584 0-7.211 0.896-10.581 2.816-10.24 5.845-13.781 18.859-7.936 29.099l85.333 149.333c5.803 10.24 18.816 13.867 29.099 7.936 10.24-5.845 13.781-18.859 7.936-29.099l-85.333-149.333c-3.925-6.912-11.136-10.752-18.517-10.752zM349.696 277.333h-243.029c-11.776 0-21.333 9.557-21.333 21.333v256c0 11.776 9.557 21.333 21.333 21.333h285.739c11.776 0 21.333-9.557 21.333-21.333s-9.557-21.333-21.333-21.333h-264.405v-213.333h221.696c11.776 0 21.333-9.557 21.333-21.333s-9.515-21.333-21.333-21.333zM832 277.333h-285.739c-11.776 0-21.333 9.557-21.333 21.333s9.557 21.333 21.333 21.333h264.405v213.333h-221.184c-11.776 0-21.333 9.557-21.333 21.333s9.557 21.333 21.333 21.333h242.517c11.776 0 21.333-9.557 21.333-21.333v-256c0-11.776-9.557-21.333-21.333-21.333z" />
<glyph unicode="&#xe914;" glyph-name="Battery-Full" d="M832 234.667h-725.333c-58.837 0-106.667 47.872-106.667 106.667v256c0 58.795 47.829 106.667 106.667 106.667h725.333c58.837 0 106.667-47.872 106.667-106.667v-21.333h21.333c35.285 0 64-28.715 64-64v-85.333c0-35.285-28.715-64-64-64h-21.333v-21.333c0-58.795-47.829-106.667-106.667-106.667zM106.667 661.333c-35.285 0-64-28.715-64-64v-256c0-35.285 28.715-64 64-64h725.333c35.285 0 64 28.715 64 64v42.667c0 11.776 9.557 21.333 21.333 21.333h42.667c11.733 0 21.333 9.557 21.333 21.333v85.333c0 11.776-9.6 21.333-21.333 21.333h-42.667c-11.776 0-21.333 9.557-21.333 21.333v42.667c0 35.285-28.715 64-64 64h-725.333zM832 320h-725.333c-11.776 0-21.333 9.557-21.333 21.333v256c0 11.776 9.557 21.333 21.333 21.333h725.333c11.776 0 21.333-9.557 21.333-21.333v-256c0-11.776-9.557-21.333-21.333-21.333zM128 362.667h682.667v213.333h-682.667v-213.333z" />
<glyph unicode="&#xe915;" glyph-name="Battery-Half" d="M832 192h-725.333c-58.795 0-106.667 47.872-106.667 106.667v256c0 58.795 47.872 106.667 106.667 106.667h725.333c58.795 0 106.667-47.872 106.667-106.667v-21.333h21.333c35.285 0 64-28.715 64-64v-85.333c0-35.285-28.715-64-64-64h-21.333v-21.333c0-58.795-47.872-106.667-106.667-106.667zM106.667 618.667c-35.285 0-64-28.715-64-64v-256c0-35.285 28.715-64 64-64h725.333c35.285 0 64 28.715 64 64v42.667c0 11.776 9.557 21.333 21.333 21.333h42.667c11.776 0 21.333 9.557 21.333 21.333v85.333c0 11.776-9.557 21.333-21.333 21.333h-42.667c-11.776 0-21.333 9.557-21.333 21.333v42.667c0 35.285-28.715 64-64 64h-725.333zM661.333 277.333h-554.667c-11.776 0-21.333 9.557-21.333 21.333v256c0 11.776 9.557 21.333 21.333 21.333h426.667c8.064 0 15.445-4.565 19.072-11.776l128-256c3.328-6.613 2.944-14.464-0.939-20.736s-10.752-10.155-18.133-10.155zM128 320h498.816l-106.667 213.333h-392.149v-213.333z" />
<glyph unicode="&#xe916;" glyph-name="Battery-Low" d="M832 192h-725.333c-58.795 0-106.667 47.872-106.667 106.667v256c0 58.795 47.872 106.667 106.667 106.667h725.333c58.795 0 106.667-47.872 106.667-106.667v-21.333h21.333c35.285 0 64-28.715 64-64v-85.333c0-35.285-28.715-64-64-64h-21.333v-21.333c0-58.795-47.872-106.667-106.667-106.667zM106.667 618.667c-35.285 0-64-28.715-64-64v-256c0-35.285 28.715-64 64-64h725.333c35.285 0 64 28.715 64 64v42.667c0 11.776 9.557 21.333 21.333 21.333h42.667c11.776 0 21.333 9.557 21.333 21.333v85.333c0 11.776-9.557 21.333-21.333 21.333h-42.667c-11.776 0-21.333 9.557-21.333 21.333v42.667c0 35.285-28.715 64-64 64h-725.333zM405.333 277.333h-298.667c-11.776 0-21.333 9.557-21.333 21.333v256c0 11.776 9.557 21.333 21.333 21.333h170.667c8.064 0 15.445-4.565 19.072-11.776l128-256c3.328-6.613 2.944-14.464-0.939-20.736s-10.752-10.155-18.133-10.155zM128 320h242.816l-106.667 213.333h-136.149v-213.333z" />
<glyph unicode="&#xe917;" glyph-name="Bell" d="M917.333 64h-810.667c-7.68 0-14.805 4.139-18.603 10.837-3.755 6.656-3.669 14.891 0.299 21.461l73.301 122.112c33.792 56.363 51.669 120.875 51.669 186.624v106.965c0 164.651 134.016 298.667 298.667 298.667s298.667-134.016 298.667-298.667v-106.965c0-65.749 17.877-130.261 51.669-186.624l73.301-122.112c3.968-6.571 4.053-14.805 0.299-21.461-3.797-6.699-10.923-10.837-18.603-10.837zM144.341 106.667h735.317l-53.931 89.813c-37.76 62.976-57.728 135.083-57.728 208.555v106.965c0 141.184-114.816 256-256 256s-256-114.816-256-256v-106.965c0-73.472-19.968-145.579-57.771-208.555l-53.888-89.813zM576 768c-11.776 0-21.333 9.557-21.333 21.333v85.333c0 23.552-19.115 42.667-42.667 42.667s-42.667-19.115-42.667-42.667v-85.333c0-11.776-9.557-21.333-21.333-21.333s-21.333 9.557-21.333 21.333v85.333c0 47.061 38.272 85.333 85.333 85.333s85.333-38.272 85.333-85.333v-85.333c0-11.776-9.557-21.333-21.333-21.333zM512-64c-58.837 0-106.667 47.829-106.667 106.667 0 18.859 4.992 37.333 14.421 53.461 5.973 10.155 18.944 13.483 29.227 7.637 10.155-5.973 13.568-19.029 7.637-29.227-5.547-9.429-8.576-20.736-8.576-31.872 0-35.285 28.715-64 64-64s64 28.715 64 64c0 11.136-3.029 22.443-8.576 31.872-5.973 10.155-2.56 23.253 7.637 29.227 10.197 5.845 23.211 2.517 29.227-7.637 9.429-16.128 14.421-34.603 14.421-53.461-0.085-58.837-47.915-106.667-106.752-106.667z" />
<glyph unicode="&#xe918;" glyph-name="Blende" d="M512-64c-282.325 0-512 229.675-512 512s229.675 512 512 512 512-229.675 512-512-229.675-512-512-512zM512 917.333c-258.773 0-469.333-210.56-469.333-469.333s210.56-469.333 469.333-469.333 469.333 210.56 469.333 469.333-210.56 469.333-469.333 469.333zM963.669 234.667h-556.459c-11.776 0-21.333 9.557-21.333 21.333s9.557 21.333 21.333 21.333h556.459c11.776 0 21.333-9.557 21.333-21.333s-9.557-21.333-21.333-21.333zM573.824-60.117c-7.424 0-14.677 3.925-18.603 10.837l-275.925 488.704c-5.803 10.24-2.176 23.296 8.064 29.099 10.197 5.803 23.296 2.219 29.099-8.064l275.968-488.704c5.803-10.24 2.176-23.296-8.064-29.099-3.371-1.92-6.955-2.773-10.539-2.773zM125.952 123.733c-3.584 0-7.168 0.896-10.496 2.731-10.24 5.803-13.867 18.773-8.064 29.099l279.381 494.933c5.76 10.283 18.816 13.824 29.056 8.107 10.24-5.803 13.867-18.773 8.064-29.099l-279.381-494.933c-3.883-6.912-11.136-10.837-18.56-10.837zM616.789 618.667h-555.52c-11.776 0-21.333 9.557-21.333 21.333s9.515 21.333 21.333 21.333h555.563c11.776 0 21.333-9.557 21.333-21.333s-9.6-21.333-21.376-21.333zM726.272 425.045c-7.424 0-14.677 3.925-18.603 10.837l-275.797 488.448c-5.803 10.24-2.176 23.296 8.064 29.099 10.197 5.76 23.253 2.219 29.099-8.064l275.84-488.448c5.803-10.24 2.176-23.296-8.064-29.099-3.371-1.92-6.955-2.773-10.539-2.773zM618.667 234.667c-3.584 0-7.211 0.896-10.496 2.731-10.24 5.845-13.867 18.816-8.064 29.099l279.808 494.379c5.888 10.325 18.901 13.867 29.099 8.064 10.24-5.845 13.867-18.816 8.064-29.099l-279.808-494.379c-3.968-6.912-11.179-10.795-18.603-10.795z" />
<glyph unicode="&#xe919;" glyph-name="Bluetooth" d="M490.667-42.667c-2.731 0-5.504 0.555-8.149 1.621-7.979 3.285-13.184 11.093-13.184 19.712v417.835l-176.896-176.896c-8.32-8.32-21.845-8.32-30.165 0s-8.32 21.845 0 30.165l198.229 198.229-198.272 198.229c-8.32 8.32-8.32 21.845 0 30.165s21.845 8.32 30.165 0l176.939-176.896v417.835c0 8.619 5.205 16.427 13.184 19.712 8.021 3.243 17.152 1.451 23.253-4.608l234.667-234.667c8.32-8.32 8.32-21.845 0-30.165l-219.605-219.605 219.563-219.563c8.32-8.32 8.32-21.845 0-30.165l-234.667-234.667c-4.053-4.096-9.515-6.272-15.061-6.272zM512 396.501v-366.336l183.168 183.168-183.168 183.168zM512 865.835v-366.336l183.168 183.168-183.168 183.168z" />
<glyph unicode="&#xe91a;" glyph-name="Book" d="M874.667 746.667h-640c-58.795 0-106.667 47.829-106.667 106.667s47.872 106.667 106.667 106.667h640c8.32 0 15.915-4.821 19.371-12.416s2.261-16.512-3.2-22.784v0c0 0-16.171-21.333-16.171-71.467 0-50.261 16.299-71.595 16.469-71.808 5.035-6.4 6.144-15.317 2.56-22.656-3.541-7.381-10.88-12.203-19.029-12.203zM234.667 917.333c-35.285 0-64-28.715-64-64s28.715-64 64-64h606.251c-4.907 15.573-8.917 36.651-8.917 64s4.011 48.427 8.917 64h-606.251zM832 832h-597.333c-11.776 0-21.333 9.557-21.333 21.333s9.557 21.333 21.333 21.333h597.333c11.776 0 21.333-9.557 21.333-21.333s-9.557-21.333-21.333-21.333zM874.667-64h-640c-58.795 0-106.667 47.829-106.667 106.667v810.667c0 11.776 9.557 21.333 21.333 21.333s21.333-9.557 21.333-21.333v-810.667c0-35.285 28.715-64 64-64h618.667v789.333c0 11.776 9.557 21.333 21.333 21.333s21.333-9.557 21.333-21.333v-810.667c0-11.776-9.557-21.333-21.333-21.333z" />
<glyph unicode="&#xe91b;" glyph-name="Bookmarrk" d="M746.667-64c-5.547 0-11.008 2.176-15.104 6.229l-198.229 198.272-198.229-198.229c-6.101-6.144-15.275-7.936-23.253-4.608s-13.184 11.051-13.184 19.669v704h-64c-11.776 0-21.333 9.557-21.333 21.333v213.333c0 35.285 28.715 64 64 64h426.667c35.285 0 64-28.715 64-64v-938.667c0-8.619-5.205-16.427-13.184-19.712-2.645-1.067-5.419-1.621-8.149-1.621zM533.333 192c5.461 0 10.923-2.091 15.104-6.229l176.896-176.939v887.168c0 11.733-9.557 21.333-21.333 21.333h-366.293c2.347-6.656 3.627-13.867 3.627-21.333v-887.168l176.896 176.896c4.181 4.181 9.643 6.272 15.104 6.272zM256 704h42.667v192c0 11.733-9.557 21.333-21.333 21.333s-21.333-9.6-21.333-21.333v-192z" />
<glyph unicode="&#xe91c;" glyph-name="Box" d="M917.333-64h-810.667c-58.795 0-106.667 47.872-106.667 106.667v725.333c0 11.776 9.557 21.333 21.333 21.333h981.333c11.776 0 21.333-9.557 21.333-21.333v-725.333c0-58.795-47.872-106.667-106.667-106.667zM42.667 746.667v-704c0-35.285 28.715-64 64-64h810.667c35.285 0 64 28.715 64 64v704h-938.667zM1002.667 746.667c-4.651 0-9.387 1.536-13.312 4.651l-207.488 166.016h-539.733l-207.445-166.016c-9.259-7.339-22.656-5.803-30.037 3.328-7.339 9.216-5.845 22.613 3.328 29.995l213.333 170.667c3.797 3.029 8.491 4.693 13.355 4.693h554.667c4.864 0 9.557-1.664 13.355-4.651l213.333-170.667c9.173-7.381 10.667-20.779 3.328-29.995-4.224-5.291-10.453-8.021-16.683-8.021zM661.333 448h-298.667c-11.776 0-21.333 9.557-21.333 21.333v128c0 11.776 9.557 21.333 21.333 21.333h298.667c11.776 0 21.333-9.557 21.333-21.333v-128c0-11.776-9.557-21.333-21.333-21.333zM384 490.667h256v85.333h-256v-85.333z" />
<glyph unicode="&#xe91d;" glyph-name="Brake-Link" d="M234.88 704c-5.461 0-10.923 2.091-15.061 6.229l-128.427 128c-8.363 8.32-8.363 21.803-0.043 30.165s21.931 8.32 30.165 0.043l128.427-128c8.363-8.32 8.363-21.803 0.085-30.165-4.181-4.181-9.685-6.272-15.147-6.272zM191.787 618.667h-170.667c-11.776 0-21.333 9.557-21.333 21.333s9.557 21.333 21.333 21.333h170.667c11.776 0 21.333-9.557 21.333-21.333s-9.557-21.333-21.333-21.333zM320.213 746.667c-11.776 0-21.333 9.557-21.333 21.333v170.667c0 11.776 9.557 21.333 21.333 21.333s21.333-9.557 21.333-21.333v-170.667c0-11.776-9.557-21.333-21.333-21.333zM917.547 64c-5.461 0-10.923 2.091-15.061 6.229l-128.427 128c-8.363 8.32-8.363 21.803-0.085 30.165 8.32 8.363 21.931 8.32 30.165 0.043l128.427-128c8.363-8.32 8.363-21.803 0.085-30.165-4.139-4.181-9.643-6.272-15.104-6.272zM1002.88 277.333h-170.667c-11.776 0-21.333 9.557-21.333 21.333s9.557 21.333 21.333 21.333h170.667c11.776 0 21.333-9.557 21.333-21.333s-9.557-21.333-21.333-21.333zM703.787-21.333c-11.776 0-21.333 9.557-21.333 21.333v170.667c0 11.776 9.557 21.333 21.333 21.333s21.333-9.557 21.333-21.333v-170.667c0-11.776-9.557-21.333-21.333-21.333zM560.469 304.768c-49.152 0-98.347 18.688-135.765 56.149-8.32 8.32-8.32 21.845 0 30.165s21.845 8.32 30.165 0c58.283-58.283 153.003-58.197 211.2 0l271.488 271.531c58.197 58.24 58.197 152.96 0 211.2-58.24 58.197-152.917 58.197-211.157 0l-186.197-186.197c-8.32-8.32-21.845-8.32-30.165 0s-8.32 21.845 0 30.165l186.197 186.197c74.837 74.837 196.651 74.837 271.488 0 74.88-74.837 74.88-196.693 0-271.531l-271.488-271.531c-37.419-37.419-86.571-56.149-135.765-56.149zM191.573-64.085c-49.152 0-98.347 18.688-135.765 56.107-74.88 74.837-74.88 196.693 0 271.531l271.488 271.531c74.752 74.837 196.608 74.923 271.531 0 8.32-8.32 8.32-21.845 0-30.165s-21.845-8.32-30.165 0c-58.24 58.197-152.96 58.155-211.2 0l-271.445-271.531c-58.197-58.24-58.197-152.96 0-211.2 58.24-58.197 152.917-58.197 211.157 0l186.197 186.197c8.32 8.32 21.845 8.32 30.165 0s8.32-21.845 0-30.165l-186.197-186.197c-37.419-37.419-86.571-56.107-135.765-56.107z" />
<glyph unicode="&#xe91e;" glyph-name="Briefcase" d="M960 21.333h-896c-35.285 0-64 28.715-64 64v597.333c0 35.285 28.715 64 64 64h896c35.285 0 64-28.715 64-64v-597.333c0-35.285-28.715-64-64-64zM64 704c-11.776 0-21.333-9.557-21.333-21.333v-597.333c0-11.776 9.557-21.333 21.333-21.333h896c11.776 0 21.333 9.557 21.333 21.333v597.333c0 11.776-9.557 21.333-21.333 21.333h-896zM661.333 704h-298.667c-11.776 0-21.333 9.557-21.333 21.333v85.333c0 35.285 28.715 64 64 64h213.333c35.285 0 64-28.715 64-64v-85.333c0-11.776-9.557-21.333-21.333-21.333zM384 746.667h256v64c0 11.776-9.557 21.333-21.333 21.333h-213.333c-11.776 0-21.333-9.557-21.333-21.333v-64zM512 405.333c-47.061 0-85.333 38.272-85.333 85.333s38.272 85.333 85.333 85.333 85.333-38.272 85.333-85.333-38.272-85.333-85.333-85.333zM512 533.333c-23.509 0-42.667-19.157-42.667-42.667s19.157-42.667 42.667-42.667 42.667 19.157 42.667 42.667-19.157 42.667-42.667 42.667zM448 490.667h-426.667c-11.776 0-21.333 9.557-21.333 21.333s9.557 21.333 21.333 21.333h426.667c11.776 0 21.333-9.557 21.333-21.333s-9.557-21.333-21.333-21.333zM1002.667 490.667h-426.667c-11.776 0-21.333 9.557-21.333 21.333s9.557 21.333 21.333 21.333h426.667c11.776 0 21.333-9.557 21.333-21.333s-9.557-21.333-21.333-21.333z" />
<glyph unicode="&#xe91f;" glyph-name="Brush" d="M21.333-64c-2.731 0-5.504 0.512-8.149 1.621-7.979 3.285-13.184 11.093-13.184 19.712 0 196.693 170.368 362.667 277.333 362.667 5.675 0 11.093-2.261 15.104-6.229l85.333-85.333c3.968-4.011 6.229-9.429 6.229-15.104 0-108.885-51.84-176.939-146.005-191.744l-27.136-4.096c-72.619-10.752-116.437-17.237-174.421-75.221-4.096-4.096-9.557-6.272-15.104-6.272zM269.013 276.821c-73.173-8.448-197.845-123.349-222.165-269.483 50.773 36.48 97.664 43.477 157.739 52.352l26.752 4.053c70.528 11.051 107.477 58.453 109.867 140.885l-72.192 72.192zM362.667 192c-7.296 0-14.421 3.755-18.389 10.496-5.973 10.155-2.603 23.211 7.552 29.227 1.536 0.896 155.648 92.629 337.067 274.048 152.064 152.064 255.701 299.435 286.336 344.832l-60.672 60.672c-45.44-30.677-192.939-134.443-344.832-286.336-181.419-181.419-273.109-335.531-274.048-337.067-6.016-10.155-19.029-13.483-29.227-7.552-10.155 5.973-13.525 19.029-7.552 29.184 3.797 6.443 95.061 160.043 280.619 345.6 185.259 185.259 364.459 300.416 366.251 301.568 8.448 5.376 19.499 4.181 26.581-2.901l85.333-85.333c7.083-7.083 8.277-18.133 2.901-26.581-1.152-1.792-116.309-180.992-301.568-366.251-185.557-185.557-339.157-276.821-345.6-280.619-3.328-2.048-7.040-2.987-10.752-2.987zM554.667 341.333c-5.461 0-10.923 2.091-15.104 6.229l-128 128c-8.32 8.32-8.32 21.845 0 30.165s21.845 8.32 30.165 0l128-128c8.32-8.32 8.32-21.845 0-30.165-4.139-4.139-9.6-6.229-15.061-6.229z" />
<glyph unicode="&#xe920;" glyph-name="Bug" d="M490.667 576c-54.997 0-96.085 13.824-122.112 41.131-28.075 29.397-27.392 62.848-27.179 66.56 0.128 2.944 0.896 5.888 2.219 8.533l64 128c3.627 7.211 11.008 11.776 19.072 11.776h128c8.064 0 15.445-4.565 19.072-11.776l64-128c1.323-2.688 2.091-5.589 2.219-8.533 0.213-3.712 0.896-37.12-27.179-66.56-26.027-27.307-67.115-41.131-122.112-41.131zM384.213 678.101c0.768-6.315 3.755-19.883 15.829-32.171 17.493-17.835 48.853-27.264 90.624-27.264s73.131 9.429 90.624 27.264c12.032 12.245 15.061 25.728 15.787 32.171l-55.595 111.232h-101.675l-55.595-111.232zM426.667 789.333c-0.341 0-0.725 0-1.067 0.043-11.776 0.597-20.821 10.624-20.224 22.357 0.896 18.091-1.28 74.752-22.357 96.896-5.632 5.973-12.117 8.704-20.352 8.704-11.776 0-21.333 9.557-21.333 21.333s9.557 21.333 21.333 21.333c19.925 0 37.632-7.637 51.285-22.016 37.504-39.509 34.517-119.467 34.005-128.469-0.597-11.349-9.984-20.181-21.291-20.181zM554.837 789.333c-11.307 0-20.693 8.832-21.291 20.224-0.512 9.003-3.499 88.96 34.005 128.469 13.653 14.336 31.36 21.973 51.285 21.973 11.776 0 21.333-9.557 21.333-21.333s-9.557-21.333-21.333-21.333c-8.235 0-14.72-2.731-20.352-8.704-21.205-22.315-23.296-78.848-22.357-96.853 0.64-11.776-8.405-21.845-20.181-22.4-0.384-0.043-0.725-0.043-1.109-0.043zM490.667-64c-189.227 0-277.333 241.877-277.333 405.333 0 162.517 21.291 237.483 22.187 240.64 1.237 4.224 3.755 7.979 7.168 10.709l106.667 85.333c9.259 7.253 22.656 5.803 29.995-3.328 7.339-9.216 5.888-22.613-3.328-29.995l-101.077-80.853c-4.779-20.651-18.944-92.672-18.944-222.507 0-146.261 74.581-362.667 234.667-362.667s234.667 216.405 234.667 362.667c0 129.835-14.165 201.856-18.944 222.507l-101.035 80.853c-9.216 7.381-10.667 20.779-3.328 29.995 7.424 9.216 20.821 10.581 29.995 3.328l106.667-85.333c3.413-2.731 5.931-6.485 7.168-10.709 0.853-3.157 22.144-78.123 22.144-240.64 0-163.456-88.107-405.333-277.333-405.333zM490.667-64c-11.776 0-21.333 9.557-21.333 21.333v640c0 11.776 9.557 21.333 21.333 21.333s21.333-9.557 21.333-21.333v-640c0-11.776-9.557-21.333-21.333-21.333zM746.667 448c-6.869 0-13.611 3.328-17.749 9.515-6.528 9.771-3.883 23.040 5.931 29.568l128 85.333c9.728 6.485 22.955 3.925 29.568-5.931 6.528-9.771 3.883-23.040-5.931-29.568l-128-85.333c-3.627-2.432-7.723-3.584-11.819-3.584zM874.667 277.333h-128c-11.776 0-21.333 9.557-21.333 21.333s9.557 21.333 21.333 21.333h128c11.776 0 21.333-9.557 21.333-21.333s-9.557-21.333-21.333-21.333zM832-21.333c-5.461 0-10.923 2.091-15.104 6.229l-128 128c-8.32 8.32-8.32 21.845 0 30.165s21.845 8.32 30.165 0l128-128c8.32-8.32 8.32-21.845 0-30.165-4.139-4.139-9.6-6.229-15.061-6.229zM234.667 448c-4.096 0-8.192 1.152-11.819 3.584l-128 85.333c-9.813 6.528-12.459 19.797-5.931 29.568s19.883 12.373 29.568 5.931l128-85.333c9.771-6.528 12.459-19.797 5.931-29.568-4.139-6.187-10.88-9.515-17.749-9.515zM234.667 277.333h-128c-11.776 0-21.333 9.557-21.333 21.333s9.557 21.333 21.333 21.333h128c11.776 0 21.333-9.557 21.333-21.333s-9.557-21.333-21.333-21.333zM149.333-21.333c-5.461 0-10.923 2.091-15.104 6.229-8.32 8.32-8.32 21.845 0 30.165l128 128c8.32 8.32 21.845 8.32 30.165 0s8.32-21.845 0-30.165l-128-128c-4.139-4.139-9.6-6.229-15.061-6.229z" />
<glyph unicode="&#xe921;" glyph-name="Cake" d="M810.581 149.333c-43.947 0-85.333 16.469-117.333 46.891-12.885 12.203-23.595 26.027-31.957 41.088-29.227-52.437-85.163-87.979-149.291-87.979s-120.064 35.541-149.248 87.979c-8.363-15.061-19.072-28.885-31.957-41.088-34.261-32.555-79.488-49.28-126.592-46.635-89.088 4.651-161.536 84.907-161.536 178.859v55.552c0 82.347 66.987 149.333 149.333 149.333h640c82.347 0 149.333-66.987 149.333-149.333v-55.552c0-93.952-72.448-174.208-161.536-178.859-3.072-0.171-6.187-0.256-9.216-0.256zM192 490.667c-58.795 0-106.667-47.829-106.667-106.667v-55.552c0-71.637 54.315-132.736 121.088-136.277 35.413-1.749 69.291 10.581 95.019 34.944 25.728 24.448 39.893 57.429 39.893 92.885 0 11.776 9.557 21.333 21.333 21.333s21.333-9.557 21.333-21.333c0-70.571 57.429-128 128-128s128 57.429 128 128c0 11.776 9.557 21.333 21.333 21.333s21.333-9.557 21.333-21.333c0-35.456 14.165-68.437 39.893-92.885 25.728-24.363 59.477-36.907 95.019-34.944 66.773 3.541 121.088 64.683 121.088 136.277v55.552c0 58.837-47.872 106.667-106.667 106.667h-640zM789.333-64h-554.667c-58.795 0-106.667 47.829-106.667 106.667v143.147c0 11.776 9.557 21.333 21.333 21.333s21.333-9.557 21.333-21.333v-143.147c0-35.285 28.715-64 64-64h554.667c35.285 0 64 28.715 64 64v143.189c0 11.776 9.557 21.333 21.333 21.333s21.333-9.557 21.333-21.333v-143.189c0-58.837-47.872-106.667-106.667-106.667zM576 490.667h-128c-11.776 0-21.333 9.557-21.333 21.333v170.667c0 35.285 28.715 64 64 64h42.667c35.285 0 64-28.715 64-64v-170.667c0-11.776-9.557-21.333-21.333-21.333zM469.333 533.333h85.333v149.333c0 11.733-9.557 21.333-21.333 21.333h-42.667c-11.776 0-21.333-9.6-21.333-21.333v-149.333zM512 704c-47.061 0-85.333 38.272-85.333 85.333 0 31.531 50.901 129.92 66.475 159.317 3.755 6.955 12.075 10.411 18.901 11.349 7.936-0.043 15.189-4.437 18.859-11.477 19.968-38.272 66.432-130.389 66.432-159.189 0-47.061-38.272-85.333-85.333-85.333zM511.872 891.648c-22.656-45.781-42.283-90.88-42.539-102.357 0-23.509 19.157-42.624 42.667-42.624s42.624 19.072 42.667 42.581c-0.597 11.563-20.309 56.619-42.795 102.4z" />
<glyph unicode="&#xe922;" glyph-name="Calculator" d="M746.667-64h-469.333c-82.347 0-149.333 66.987-149.333 149.333v725.333c0 82.347 66.987 149.333 149.333 149.333h469.333c82.347 0 149.333-66.987 149.333-149.333v-725.333c0-82.347-66.987-149.333-149.333-149.333zM277.333 917.333c-58.795 0-106.667-47.872-106.667-106.667v-725.333c0-58.795 47.872-106.667 106.667-106.667h469.333c58.795 0 106.667 47.872 106.667 106.667v725.333c0 58.795-47.872 106.667-106.667 106.667h-469.333zM746.667 533.333h-469.333c-35.285 0-64 28.715-64 64v213.333c0 35.285 28.715 64 64 64h469.333c35.285 0 64-28.715 64-64v-213.333c0-35.285-28.715-64-64-64zM277.333 832c-11.776 0-21.333-9.557-21.333-21.333v-213.333c0-11.776 9.557-21.333 21.333-21.333h469.333c11.776 0 21.333 9.557 21.333 21.333v213.333c0 11.776-9.557 21.333-21.333 21.333h-469.333zM362.667 277.333c-11.776 0-21.333 9.557-21.333 21.333v170.667c0 11.776 9.557 21.333 21.333 21.333s21.333-9.557 21.333-21.333v-170.667c0-11.776-9.557-21.333-21.333-21.333zM448 362.667h-170.667c-11.776 0-21.333 9.557-21.333 21.333s9.557 21.333 21.333 21.333h170.667c11.776 0 21.333-9.557 21.333-21.333s-9.557-21.333-21.333-21.333zM746.667 362.667h-170.667c-11.776 0-21.333 9.557-21.333 21.333s9.557 21.333 21.333 21.333h170.667c11.776 0 21.333-9.557 21.333-21.333s-9.557-21.333-21.333-21.333zM320 64c-4.053 0-8.149 1.152-11.819 3.584-9.813 6.528-12.459 19.755-5.931 29.568l85.333 128c6.485 9.813 19.712 12.501 29.568 5.931 9.813-6.528 12.459-19.755 5.931-29.568l-85.333-128c-4.096-6.187-10.88-9.515-17.749-9.515zM405.333 64c-6.912 0-13.653 3.328-17.792 9.515l-85.333 128c-6.528 9.813-3.883 23.040 5.931 29.568 9.771 6.571 23.083 3.883 29.568-5.931l85.333-128c6.528-9.813 3.883-23.040-5.931-29.568-3.584-2.432-7.68-3.584-11.776-3.584zM746.667 149.333h-170.667c-11.776 0-21.333 9.557-21.333 21.333s9.557 21.333 21.333 21.333h170.667c11.776 0 21.333-9.557 21.333-21.333s-9.557-21.333-21.333-21.333zM746.667 64h-170.667c-11.776 0-21.333 9.557-21.333 21.333s9.557 21.333 21.333 21.333h170.667c11.776 0 21.333-9.557 21.333-21.333s-9.557-21.333-21.333-21.333z" />
<glyph unicode="&#xe923;" glyph-name="Callendar" d="M874.667-64h-725.333c-82.347 0-149.333 66.987-149.333 149.333v640c0 82.347 66.987 149.333 149.333 149.333h42.667c11.776 0 21.333-9.557 21.333-21.333s-9.557-21.333-21.333-21.333h-42.667c-58.837 0-106.667-47.829-106.667-106.667v-640c0-58.837 47.829-106.667 106.667-106.667h725.333c58.837 0 106.667 47.829 106.667 106.667v640c0 58.837-47.829 106.667-106.667 106.667h-42.667c-11.776 0-21.333 9.557-21.333 21.333s9.557 21.333 21.333 21.333h42.667c82.347 0 149.333-66.987 149.333-149.333v-640c0-82.347-66.987-149.333-149.333-149.333zM661.333 832h-298.667c-11.776 0-21.333 9.557-21.333 21.333s9.557 21.333 21.333 21.333h298.667c11.776 0 21.333-9.557 21.333-21.333s-9.557-21.333-21.333-21.333zM1002.667 618.667h-981.333c-11.776 0-21.333 9.557-21.333 21.333s9.557 21.333 21.333 21.333h981.333c11.776 0 21.333-9.557 21.333-21.333s-9.557-21.333-21.333-21.333zM277.333 746.667c-11.776 0-21.333 9.557-21.333 21.333v170.667c0 11.776 9.557 21.333 21.333 21.333s21.333-9.557 21.333-21.333v-170.667c0-11.776-9.557-21.333-21.333-21.333zM746.667 746.667c-11.776 0-21.333 9.557-21.333 21.333v170.667c0 11.776 9.557 21.333 21.333 21.333s21.333-9.557 21.333-21.333v-170.667c0-11.776-9.557-21.333-21.333-21.333zM362.667 106.667c-58.837 0-106.667 47.829-106.667 106.667 0 11.776 9.557 21.333 21.333 21.333s21.333-9.557 21.333-21.333c0-35.285 28.715-64 64-64s64 28.715 64 64-28.715 64-64 64h-42.667c-11.776 0-21.333 9.557-21.333 21.333s9.557 21.333 21.333 21.333h42.667c35.285 0 64 28.715 64 64s-28.715 64-64 64-64-28.715-64-64c0-11.776-9.557-21.333-21.333-21.333s-21.333 9.557-21.333 21.333c0 58.837 47.829 106.667 106.667 106.667s106.667-47.829 106.667-106.667c0-34.816-16.811-65.877-42.752-85.333 25.941-19.456 42.752-50.517 42.752-85.333 0-58.837-47.829-106.667-106.667-106.667zM661.333 106.667c-11.776 0-21.333 9.557-21.333 21.333v289.835l-48.896-48.896c-8.32-8.32-21.845-8.32-30.165 0s-8.32 21.845 0 30.165l85.333 85.333c6.144 6.144 15.317 7.893 23.253 4.608s13.141-11.093 13.141-19.712v-341.333c0-11.776-9.557-21.333-21.333-21.333zM746.667 106.667h-170.667c-11.776 0-21.333 9.557-21.333 21.333s9.557 21.333 21.333 21.333h170.667c11.776 0 21.333-9.557 21.333-21.333s-9.557-21.333-21.333-21.333z" />
<glyph unicode="&#xe924;" glyph-name="Camera-1" d="M874.667 21.333h-725.333c-82.347 0-149.333 66.987-149.333 149.333v384c0 82.347 66.987 149.333 149.333 149.333h128c9.173 0 17.323 5.845 20.267 14.592l13.483 40.491c14.507 43.605 55.168 72.917 101.163 72.917h199.509c45.995 0 86.656-29.312 101.205-72.96l13.483-40.448c2.901-8.747 11.051-14.592 20.224-14.592h128c82.347 0 149.333-66.987 149.333-149.333v-384c0-82.347-66.987-149.333-149.333-149.333zM149.333 661.333c-58.795 0-106.667-47.872-106.667-106.667v-384c0-58.795 47.872-106.667 106.667-106.667h725.333c58.795 0 106.667 47.872 106.667 106.667v384c0 58.795-47.872 106.667-106.667 106.667h-128c-27.563 0-51.968 17.579-60.715 43.733l-13.483 40.491c-8.747 26.197-33.152 43.776-60.715 43.776h-199.509c-27.563 0-51.968-17.579-60.672-43.733l-13.525-40.533c-8.747-26.155-33.152-43.733-60.715-43.733h-128zM512 106.667c-141.184 0-256 114.816-256 256s114.816 256 256 256 256-114.816 256-256-114.816-256-256-256zM512 576c-117.632 0-213.333-95.701-213.333-213.333s95.701-213.333 213.333-213.333 213.333 95.701 213.333 213.333-95.701 213.333-213.333 213.333zM362.667 341.333c-11.776 0-21.333 9.557-21.333 21.333 0 94.123 76.544 170.667 170.667 170.667 11.776 0 21.333-9.557 21.333-21.333s-9.557-21.333-21.333-21.333c-70.571 0-128-57.429-128-128 0-11.776-9.557-21.333-21.333-21.333z" />
<glyph unicode="&#xe925;" glyph-name="Camera-2" d="M704 149.333h-597.333c-58.837 0-106.667 47.872-106.667 106.667v384c0 58.795 47.829 106.667 106.667 106.667h597.333c58.837 0 106.667-47.872 106.667-106.667v-11.179l184.064 73.643c6.528 2.645 13.995 1.792 19.883-2.133 5.888-3.968 9.387-10.581 9.387-17.664v-469.333c0-7.083-3.499-13.696-9.387-17.664-5.845-3.968-13.312-4.736-19.883-2.133l-184.064 73.643v-11.179c0-58.795-47.829-106.667-106.667-106.667zM106.667 704c-35.285 0-64-28.715-64-64v-384c0-35.285 28.715-64 64-64h597.333c35.285 0 64 28.715 64 64v42.667c0 7.083 3.499 13.696 9.387 17.664 5.845 3.968 13.355 4.779 19.883 2.133l184.064-73.643v406.357l-184.064-73.643c-6.528-2.603-14.037-1.792-19.883 2.133-5.888 3.968-9.387 10.581-9.387 17.664v42.667c0 35.285-28.715 64-64 64h-597.333z" />
<glyph unicode="&#xe926;" glyph-name="Car" d="M960 192h-896c-35.285 0-64 28.715-64 64v170.667c0 82.347 66.987 149.333 149.333 149.333h725.333c82.347 0 149.333-66.987 149.333-149.333v-170.667c0-35.285-28.715-64-64-64zM149.333 533.333c-58.795 0-106.667-47.872-106.667-106.667v-170.667c0-11.776 9.557-21.333 21.333-21.333h896c11.776 0 21.333 9.557 21.333 21.333v170.667c0 58.795-47.872 106.667-106.667 106.667h-725.333zM234.667 21.333h-85.333c-35.285 0-64 28.715-64 64v128c0 11.776 9.557 21.333 21.333 21.333h170.667c11.776 0 21.333-9.557 21.333-21.333v-128c0-35.285-28.715-64-64-64zM128 192v-106.667c0-11.776 9.557-21.333 21.333-21.333h85.333c11.776 0 21.333 9.557 21.333 21.333v106.667h-128zM874.667 21.333h-85.333c-35.285 0-64 28.715-64 64v128c0 11.776 9.557 21.333 21.333 21.333h170.667c11.776 0 21.333-9.557 21.333-21.333v-128c0-35.285-28.715-64-64-64zM768 192v-106.667c0-11.776 9.557-21.333 21.333-21.333h85.333c11.776 0 21.333 9.557 21.333 21.333v106.667h-128zM920.533 524.843c-8.277 0-16.171 4.864-19.627 12.971l-120.107 281.301c-3.371 7.808-11.051 12.885-19.584 12.885h-498.432c-8.533 0-16.213-5.077-19.584-12.928l-120.107-281.259c-4.651-10.837-17.237-15.872-27.989-11.264-10.837 4.651-15.915 17.195-11.264 28.032l120.107 281.259c10.155 23.595 33.237 38.827 58.837 38.827h498.432c25.643 0 48.725-15.232 58.795-38.784l120.149-281.344c4.608-10.837-0.427-23.381-11.264-27.989-2.688-1.152-5.547-1.707-8.363-1.707zM192 277.333c-58.795 0-106.667 47.872-106.667 106.667s47.872 106.667 106.667 106.667 106.667-47.872 106.667-106.667-47.872-106.667-106.667-106.667zM192 448c-35.285 0-64-28.715-64-64s28.715-64 64-64 64 28.715 64 64-28.715 64-64 64zM832 277.333c-58.795 0-106.667 47.872-106.667 106.667s47.872 106.667 106.667 106.667 106.667-47.872 106.667-106.667-47.872-106.667-106.667-106.667zM832 448c-35.285 0-64-28.715-64-64s28.715-64 64-64 64 28.715 64 64-28.715 64-64 64zM661.333 320h-298.667c-11.776 0-21.333 9.557-21.333 21.333s9.557 21.333 21.333 21.333h298.667c11.776 0 21.333-9.557 21.333-21.333s-9.557-21.333-21.333-21.333zM661.333 405.333h-298.667c-11.776 0-21.333 9.557-21.333 21.333s9.557 21.333 21.333 21.333h298.667c11.776 0 21.333-9.557 21.333-21.333s-9.557-21.333-21.333-21.333z" />
<glyph unicode="&#xe927;" glyph-name="Check-1" d="M490.667-64c-270.549 0-490.667 220.117-490.667 490.667s220.117 490.667 490.667 490.667 490.667-220.117 490.667-490.667-220.117-490.667-490.667-490.667zM490.667 874.667c-247.040 0-448-200.96-448-448s200.96-448 448-448 448 200.96 448 448-200.96 448-448 448zM426.667 213.333c-5.461 0-10.923 2.091-15.104 6.229l-213.333 213.333c-8.32 8.32-8.32 21.845 0 30.165s21.845 8.32 30.165 0l198.272-198.229 326.229 326.229c8.32 8.32 21.845 8.32 30.165 0s8.32-21.845 0-30.165l-341.333-341.333c-4.139-4.139-9.6-6.229-15.061-6.229z" />
<glyph unicode="&#xe928;" glyph-name="Check-2" d="M362.667 106.667c-5.461 0-10.923 2.091-15.104 6.229l-341.333 341.333c-8.32 8.32-8.32 21.845 0 30.165s21.845 8.32 30.165 0l326.272-326.229 624.896 624.939c8.32 8.32 21.845 8.32 30.165 0s8.32-21.845 0-30.165l-640-640c-4.139-4.181-9.6-6.272-15.061-6.272z" />
<glyph unicode="&#xe929;" glyph-name="Clock" d="M490.667-64c-270.549 0-490.667 220.117-490.667 490.667s220.117 490.667 490.667 490.667 490.667-220.117 490.667-490.667-220.117-490.667-490.667-490.667zM490.667 874.667c-247.040 0-448-200.96-448-448s200.96-448 448-448 448 200.96 448 448-200.96 448-448 448zM490.667 448c-11.776 0-21.333 9.557-21.333 21.333v256c0 11.776 9.557 21.333 21.333 21.333s21.333-9.557 21.333-21.333v-256c0-11.776-9.557-21.333-21.333-21.333zM960 405.333h-42.667c-11.776 0-21.333 9.557-21.333 21.333s9.557 21.333 21.333 21.333h42.667c11.776 0 21.333-9.557 21.333-21.333s-9.557-21.333-21.333-21.333zM490.667 832c-11.776 0-21.333 9.557-21.333 21.333v42.667c0 11.776 9.557 21.333 21.333 21.333s21.333-9.557 21.333-21.333v-42.667c0-11.776-9.557-21.333-21.333-21.333zM64 405.333h-42.667c-11.776 0-21.333 9.557-21.333 21.333s9.557 21.333 21.333 21.333h42.667c11.776 0 21.333-9.557 21.333-21.333s-9.557-21.333-21.333-21.333zM490.667-64c-11.776 0-21.333 9.557-21.333 21.333v42.667c0 11.776 9.557 21.333 21.333 21.333s21.333-9.557 21.333-21.333v-42.667c0-11.776-9.557-21.333-21.333-21.333zM490.667 362.667c-35.285 0-64 28.715-64 64s28.715 64 64 64 64-28.715 64-64-28.715-64-64-64zM490.667 448c-11.776 0-21.333-9.6-21.333-21.333s9.557-21.333 21.333-21.333 21.333 9.6 21.333 21.333-9.557 21.333-21.333 21.333zM661.333 234.667c-5.461 0-10.923 2.091-15.104 6.229l-128 128c-8.32 8.32-8.32 21.845 0 30.165s21.845 8.32 30.165 0l128-128c8.32-8.32 8.32-21.845 0-30.165-4.139-4.139-9.6-6.229-15.061-6.229z" />
<glyph unicode="&#xe92a;" glyph-name="Close" d="M853.333 85.333c-5.461 0-10.923 2.091-15.104 6.229l-725.333 725.333c-8.32 8.32-8.32 21.845 0 30.165s21.845 8.32 30.165 0l725.333-725.333c8.32-8.32 8.32-21.845 0-30.165-4.139-4.139-9.6-6.229-15.061-6.229zM128 85.333c-5.461 0-10.923 2.091-15.104 6.229-8.32 8.32-8.32 21.845 0 30.165l725.333 725.333c8.32 8.32 21.845 8.32 30.165 0s8.32-21.845 0-30.165l-725.333-725.333c-4.139-4.139-9.6-6.229-15.061-6.229z" />
<glyph unicode="&#xe92b;" glyph-name="Cloud-Off" d="M99.115 134.443c-4.011 0-8.021 1.109-11.605 3.456-54.784 35.627-87.509 95.787-87.509 160.768 0 98.987 75.307 180.693 171.605 190.933-0.64 7.765-0.939 15.147-0.939 22.4 0 176.469 143.531 320 320 320 75.477 0 148.736-26.965 206.336-75.861 9.003-7.637 10.069-21.077 2.475-30.037-7.595-9.045-21.077-10.155-30.080-2.475-49.877 42.368-113.408 65.707-178.731 65.707-152.917 0-277.333-124.416-277.333-277.333 0-11.989 1.024-24.704 3.243-39.979 0.896-6.144-0.939-12.331-4.992-16.981-4.693-5.461-13.611-8.021-20.992-6.997-80.939-0.043-147.925-67.029-147.925-149.376 0-50.56 25.472-97.237 68.096-125.013 9.856-6.4 12.672-19.627 6.229-29.483-4.096-6.315-10.923-9.728-17.877-9.728zM789.333 106.667h-597.333c-8.619 0-16.427 5.205-19.712 13.184s-1.451 17.152 4.608 23.253l547.925 547.883c4.48 4.523 10.795 6.869 17.237 6.144 6.357-0.64 12.117-4.139 15.659-9.515 22.656-34.517 38.229-72.107 46.251-112.085 122.624-7.552 220.032-109.739 220.032-234.197 0-129.365-105.301-234.667-234.667-234.667zM243.499 149.333h545.835c105.856 0 192 86.144 192 192 0 105.6-85.675 191.531-191.147 192-1.323-0.171-3.371-0.341-4.181-0.341-10.624 0-19.627 7.808-21.12 18.347-4.48 31.744-14.336 61.909-29.312 90.069l-492.075-492.075zM21.333-64c-5.461 0-10.923 2.091-15.104 6.229-8.32 8.32-8.32 21.845 0 30.165l981.333 981.333c8.32 8.32 21.845 8.32 30.165 0s8.32-21.845 0-30.165l-981.333-981.333c-4.139-4.139-9.6-6.229-15.061-6.229z" />
<glyph unicode="&#xe92c;" glyph-name="Cloud" d="M789.333 106.667h-597.333c-105.856 0-192 86.144-192 192 0 98.987 75.307 180.693 171.605 190.933-0.64 7.808-0.939 15.189-0.939 22.4 0 176.469 143.531 320 320 320 152.064 0 283.776-109.269 313.429-256.939 124.075-8.789 219.904-110.251 219.904-233.728 0-129.365-105.259-234.667-234.667-234.667zM190.635 448.043c-80.981-0.043-147.968-67.029-147.968-149.376s66.987-149.333 149.333-149.333h597.333c105.856 0 192 86.144 192 192s-86.144 192-192 192c-10.624 0-22.955 7.467-24.448 18.005-19.328 135.68-137.216 237.995-274.219 237.995-152.917 0-277.333-124.416-277.333-277.333 0-11.947 1.024-24.661 3.243-39.979 0.896-6.144-0.939-12.331-4.992-16.981-4.736-5.504-13.824-7.893-20.949-6.997z" />
<glyph unicode="&#xe92d;" glyph-name="Coding" d="M405.333 106.667c-2.389 0-4.821 0.427-7.168 1.237-11.093 3.968-16.896 16.171-12.928 27.264l213.333 597.333c3.925 11.136 16.128 16.896 27.264 12.928 11.093-3.968 16.896-16.171 12.928-27.264l-213.333-597.333c-3.115-8.747-11.307-14.165-20.096-14.165zM320 277.333c-2.816 0-5.675 0.555-8.405 1.707l-298.667 128c-7.851 3.371-12.928 11.093-12.928 19.627s5.077 16.256 12.928 19.627l298.667 128c10.709 4.608 23.381-0.384 27.989-11.221 4.651-10.837-0.341-23.381-11.179-28.032l-252.885-108.373 252.885-108.373c10.837-4.651 15.872-17.195 11.221-28.032-3.499-8.107-11.349-12.928-19.627-12.928zM704 277.333c-8.277 0-16.128 4.821-19.584 12.928-4.651 10.837 0.384 23.381 11.221 28.032l252.885 108.373-252.885 108.373c-10.837 4.651-15.872 17.195-11.221 28.032 4.608 10.837 17.28 15.787 27.989 11.221l298.667-128c7.851-3.371 12.928-11.093 12.928-19.627s-5.077-16.256-12.928-19.627l-298.667-128c-2.731-1.152-5.589-1.707-8.405-1.707z" />
<glyph unicode="&#xe92e;" glyph-name="Collaboration" d="M832 21.333c-82.347 0-149.333 66.987-149.333 149.333s66.987 149.333 149.333 149.333 149.333-66.987 149.333-149.333-66.987-149.333-149.333-149.333zM832 277.333c-58.795 0-106.667-47.829-106.667-106.667s47.872-106.667 106.667-106.667 106.667 47.829 106.667 106.667-47.872 106.667-106.667 106.667zM490.667 618.667c-82.347 0-149.333 66.987-149.333 149.333s66.987 149.333 149.333 149.333 149.333-66.987 149.333-149.333-66.987-149.333-149.333-149.333zM490.667 874.667c-58.795 0-106.667-47.829-106.667-106.667s47.872-106.667 106.667-106.667 106.667 47.829 106.667 106.667-47.872 106.667-106.667 106.667zM149.333 21.333c-82.347 0-149.333 66.987-149.333 149.333s66.987 149.333 149.333 149.333 149.333-66.987 149.333-149.333-66.987-149.333-149.333-149.333zM149.333 277.333c-58.795 0-106.667-47.829-106.667-106.667s47.872-106.667 106.667-106.667 106.667 47.829 106.667 106.667-47.872 106.667-106.667 106.667zM490.667-21.333c-93.824 0-185.301 32.811-257.621 92.373-9.088 7.509-10.411 20.907-2.901 30.037 7.467 9.045 20.907 10.453 30.037 2.859 64.683-53.291 146.56-82.603 230.485-82.603 84.011 0 165.931 29.355 230.613 82.731 9.131 7.552 22.528 6.229 30.037-2.859s6.229-22.528-2.859-30.037c-72.363-59.648-163.883-92.501-257.792-92.501zM864.171 273.109c-1.664 0-3.328 0.171-4.992 0.597-11.477 2.731-18.56 14.251-15.787 25.728 6.613 27.435 9.941 55.893 9.941 84.565 0 153.429-97.109 290.816-241.621 341.973-11.093 3.968-16.896 16.128-12.971 27.264 3.925 11.093 16.043 16.896 27.221 13.013 161.536-57.216 270.037-210.773 270.037-382.251 0-32-3.712-63.787-11.093-94.507-2.347-9.771-11.093-16.384-20.736-16.384zM117.12 273.237c-9.643 0-18.389 6.571-20.736 16.384-7.339 30.805-11.051 62.549-11.051 94.379 0 172.416 109.355 326.315 272.128 382.976 11.051 3.797 23.296-2.005 27.136-13.184 3.883-11.136-1.963-23.296-13.099-27.179-145.664-50.603-243.499-188.331-243.499-342.613 0-28.501 3.328-56.96 9.856-84.437 2.731-11.52-4.352-22.997-15.829-25.728-1.621-0.427-3.285-0.597-4.907-0.597z" />
<glyph unicode="&#xe92f;" glyph-name="Compass" d="M490.667-64c-270.549 0-490.667 220.117-490.667 490.667s220.117 490.667 490.667 490.667 490.667-220.117 490.667-490.667-220.117-490.667-490.667-490.667zM490.667 874.667c-247.040 0-448-200.96-448-448s200.96-448 448-448 448 200.96 448 448-200.96 448-448 448zM490.667 21.333c-223.488 0-405.333 181.845-405.333 405.333s181.845 405.333 405.333 405.333 405.333-181.845 405.333-405.333-181.845-405.333-405.333-405.333zM490.667 789.333c-199.979 0-362.667-162.688-362.667-362.667s162.688-362.667 362.667-362.667 362.667 162.688 362.667 362.667-162.688 362.667-362.667 362.667zM490.667 384c-23.509 0-42.667 19.157-42.667 42.667s19.157 42.667 42.667 42.667 42.667-19.157 42.667-42.667-19.157-42.667-42.667-42.667zM490.667 426.709c0-0.043 0-0.043 0 0v0zM277.333 192c-5.547 0-11.008 2.176-15.104 6.229-6.187 6.187-7.979 15.488-4.523 23.467l128 298.667c2.133 5.035 6.187 9.045 11.221 11.221l298.667 128c8.021 3.456 17.323 1.664 23.467-4.523 6.187-6.187 7.979-15.488 4.523-23.467l-128-298.667c-2.133-5.035-6.187-9.045-11.221-11.221l-298.667-128c-2.688-1.152-5.547-1.707-8.363-1.707zM421.589 495.744l-103.637-241.792 241.792 103.637 103.637 241.792-241.792-103.637z" />
<glyph unicode="&#xe930;" glyph-name="Computer" d="M874.667 149.333h-768c-58.837 0-106.667 47.872-106.667 106.667v554.667c0 58.795 47.829 106.667 106.667 106.667h768c58.837 0 106.667-47.872 106.667-106.667v-554.667c0-58.795-47.829-106.667-106.667-106.667zM106.667 874.667c-35.285 0-64-28.715-64-64v-554.667c0-35.285 28.715-64 64-64h768c35.285 0 64 28.715 64 64v554.667c0 35.285-28.715 64-64 64h-768zM746.667-21.333h-512c-11.776 0-21.333 9.557-21.333 21.333s9.557 21.333 21.333 21.333h512c11.776 0 21.333-9.557 21.333-21.333s-9.557-21.333-21.333-21.333zM960 320h-938.667c-11.776 0-21.333 9.557-21.333 21.333s9.557 21.333 21.333 21.333h938.667c11.776 0 21.333-9.557 21.333-21.333s-9.557-21.333-21.333-21.333zM661.333-21.333c-78.848 0-102.528 157.739-106.496 189.355-1.451 11.691 6.827 22.357 18.517 23.808 11.563 1.28 22.315-6.784 23.851-18.517 7.979-63.701 34.731-151.979 64.128-151.979 11.776 0 21.333-9.557 21.333-21.333s-9.557-21.333-21.333-21.333zM320-21.333c-11.776 0-21.333 9.557-21.333 21.333s9.557 21.333 21.333 21.333c29.397 0 56.149 88.277 64.171 151.979 1.493 11.733 12.245 19.797 23.851 18.517 11.648-1.451 19.968-12.117 18.517-23.808-4.011-31.616-27.691-189.355-106.539-189.355z" />
<glyph unicode="&#xe931;" glyph-name="Connection" d="M832 21.333c-82.347 0-149.333 66.987-149.333 149.333s66.987 149.333 149.333 149.333 149.333-66.987 149.333-149.333-66.987-149.333-149.333-149.333zM832 277.333c-58.837 0-106.667-47.829-106.667-106.667s47.829-106.667 106.667-106.667 106.667 47.829 106.667 106.667-47.829 106.667-106.667 106.667zM490.667 618.667c-82.347 0-149.333 66.987-149.333 149.333s66.987 149.333 149.333 149.333 149.333-66.987 149.333-149.333-66.987-149.333-149.333-149.333zM490.667 874.667c-58.837 0-106.667-47.829-106.667-106.667s47.829-106.667 106.667-106.667 106.667 47.829 106.667 106.667-47.829 106.667-106.667 106.667zM149.333 21.333c-82.347 0-149.333 66.987-149.333 149.333s66.987 149.333 149.333 149.333 149.333-66.987 149.333-149.333-66.987-149.333-149.333-149.333zM149.333 277.333c-58.837 0-106.667-47.829-106.667-106.667s47.829-106.667 106.667-106.667 106.667 47.829 106.667 106.667-47.829 106.667-106.667 106.667zM490.667-21.333c-93.824 0-185.344 32.811-257.621 92.373-9.088 7.509-10.368 20.907-2.859 30.037 7.467 9.045 20.907 10.368 30.037 2.859 64.597-53.291 146.475-82.603 230.443-82.603 84.053 0 165.973 29.355 230.571 82.731 9.003 7.552 22.528 6.272 30.037-2.859 7.509-9.088 6.229-22.528-2.859-30.037-72.277-59.648-163.84-92.501-257.749-92.501zM864.171 273.109c-1.621 0-3.285 0.171-4.949 0.597-11.477 2.731-18.56 14.251-15.787 25.728 6.571 27.435 9.899 55.893 9.899 84.565 0 153.387-97.067 290.816-241.621 341.973-11.093 3.968-16.896 16.128-13.013 27.264 4.011 11.136 16.171 16.853 27.264 13.013 161.493-57.216 270.037-210.816 270.037-382.251 0-32-3.755-63.787-11.093-94.507-2.304-9.771-11.093-16.384-20.736-16.384zM117.12 273.237c-9.685 0-18.432 6.571-20.736 16.384-7.339 30.805-11.051 62.549-11.051 94.379 0 172.416 109.355 326.315 272.171 382.976 10.965 3.797 23.253-2.005 27.179-13.184 3.84-11.136-2.048-23.296-13.184-27.179-145.621-50.603-243.499-188.331-243.499-342.613 0-28.501 3.328-56.96 9.856-84.437 2.731-11.52-4.352-22.997-15.787-25.728-1.664-0.427-3.328-0.597-4.949-0.597z" />
<glyph unicode="&#xe932;" glyph-name="Credit-Card" d="M917.333 106.667h-810.667c-58.795 0-106.667 47.872-106.667 106.667v469.333c0 58.795 47.872 106.667 106.667 106.667h810.667c58.795 0 106.667-47.872 106.667-106.667v-469.333c0-58.795-47.872-106.667-106.667-106.667zM106.667 746.667c-35.285 0-64-28.715-64-64v-469.333c0-35.285 28.715-64 64-64h810.667c35.285 0 64 28.715 64 64v469.333c0 35.285-28.715 64-64 64h-810.667zM1002.667 490.667h-981.333c-11.776 0-21.333 9.557-21.333 21.333v128c0 11.776 9.557 21.333 21.333 21.333h981.333c11.776 0 21.333-9.557 21.333-21.333v-128c0-11.776-9.557-21.333-21.333-21.333zM42.667 533.333h938.667v85.333h-938.667v-85.333zM405.333 320h-256c-11.776 0-21.333 9.557-21.333 21.333s9.557 21.333 21.333 21.333h256c11.776 0 21.333-9.557 21.333-21.333s-9.557-21.333-21.333-21.333zM405.333 234.667h-256c-11.776 0-21.333 9.557-21.333 21.333s9.557 21.333 21.333 21.333h256c11.776 0 21.333-9.557 21.333-21.333s-9.557-21.333-21.333-21.333zM832 234.667h-42.667c-35.285 0-64 28.715-64 64v42.667c0 35.285 28.715 64 64 64h42.667c35.285 0 64-28.715 64-64v-42.667c0-35.285-28.715-64-64-64zM789.333 362.667c-11.776 0-21.333-9.557-21.333-21.333v-42.667c0-11.776 9.557-21.333 21.333-21.333h42.667c11.776 0 21.333 9.557 21.333 21.333v42.667c0 11.776-9.557 21.333-21.333 21.333h-42.667z" />
<glyph unicode="&#xe933;" glyph-name="Crop" d="M1002.667 149.333h-768c-11.776 0-21.333 9.557-21.333 21.333v768c0 11.776 9.557 21.333 21.333 21.333s21.333-9.557 21.333-21.333v-746.667h746.667c11.776 0 21.333-9.557 21.333-21.333s-9.557-21.333-21.333-21.333zM789.333-64c-11.776 0-21.333 9.557-21.333 21.333v746.667h-746.667c-11.776 0-21.333 9.557-21.333 21.333s9.557 21.333 21.333 21.333h768c11.776 0 21.333-9.557 21.333-21.333v-768c0-11.776-9.557-21.333-21.333-21.333zM234.667 149.333c-5.461 0-10.923 2.091-15.104 6.229-8.32 8.32-8.32 21.845 0 30.165l768 768c8.32 8.32 21.845 8.32 30.165 0s8.32-21.845 0-30.165l-768-768c-4.139-4.139-9.6-6.229-15.061-6.229z" />
<glyph unicode="&#xe934;" glyph-name="Cup" d="M490.667 320c-155.52 0-277.333 271.744-277.333 618.667 0 11.776 9.557 21.333 21.333 21.333s21.333-9.557 21.333-21.333c0-312.235 107.477-576 234.667-576s234.667 263.765 234.667 576c0 11.776 9.557 21.333 21.333 21.333s21.333-9.557 21.333-21.333c0-346.923-121.813-618.667-277.333-618.667zM661.333-64h-341.333c-11.776 0-21.333 9.557-21.333 21.333 0 58.795 47.872 106.667 106.667 106.667h170.667c58.795 0 106.667-47.872 106.667-106.667 0-11.776-9.557-21.333-21.333-21.333zM344.96-21.333h291.371c-8.832 24.832-32.555 42.667-60.373 42.667h-170.667c-27.776 0-51.499-17.835-60.331-42.667zM490.667 21.333c-11.776 0-21.333 9.557-21.333 21.333v298.667c0 11.776 9.557 21.333 21.333 21.333s21.333-9.557 21.333-21.333v-298.667c0-11.776-9.557-21.333-21.333-21.333zM789.333 917.333h-597.333c-11.776 0-21.333 9.557-21.333 21.333s9.557 21.333 21.333 21.333h597.333c11.776 0 21.333-9.557 21.333-21.333s-9.557-21.333-21.333-21.333zM629.333 405.333c-11.776 0-21.333 9.557-21.333 21.333s9.557 21.333 21.333 21.333c147.029 0 266.667 119.637 266.667 266.667 0 41.173-33.493 74.667-74.667 74.667-28.8 0-55.339-16.896-67.627-42.965-5.035-10.667-17.707-15.232-28.373-10.24-10.667 5.035-15.232 17.749-10.24 28.416 19.243 40.96 60.971 67.456 106.24 67.456 64.725 0 117.333-52.608 117.333-117.333 0-170.581-138.752-309.333-309.333-309.333zM352 405.333c-170.581 0-309.333 138.752-309.333 309.333 0 64.725 52.608 117.333 117.333 117.333 45.269 0 86.997-26.496 106.24-67.499 4.992-10.667 0.427-23.339-10.24-28.373-10.709-4.992-23.381-0.384-28.416 10.24-12.245 26.069-38.784 42.965-67.584 42.965-41.173 0-74.667-33.493-74.667-74.667 0-147.029 119.637-266.667 266.667-266.667 11.776 0 21.333-9.557 21.333-21.333s-9.557-21.333-21.333-21.333z" />
<glyph unicode="&#xe935;" glyph-name="Cut" d="M490.667 853.333c-11.776 0-21.333 9.557-21.333 21.333v64c0 11.776 9.557 21.333 21.333 21.333s21.333-9.557 21.333-21.333v-64c0-11.776-9.557-21.333-21.333-21.333zM490.667 121.899c-11.776 0-21.333 9.557-21.333 21.333v121.899c0 11.776 9.557 21.333 21.333 21.333s21.333-9.557 21.333-21.333v-121.899c0-11.776-9.557-21.333-21.333-21.333zM490.667 365.739c-11.776 0-21.333 9.557-21.333 21.333v121.899c0 11.776 9.557 21.333 21.333 21.333s21.333-9.557 21.333-21.333v-121.899c0-11.819-9.557-21.333-21.333-21.333zM490.667 609.536c-11.776 0-21.333 9.557-21.333 21.333v121.899c0 11.776 9.557 21.333 21.333 21.333s21.333-9.557 21.333-21.333v-121.899c0-11.776-9.557-21.333-21.333-21.333zM490.667-64c-11.776 0-21.333 9.557-21.333 21.333v64c0 11.776 9.557 21.333 21.333 21.333s21.333-9.557 21.333-21.333v-64c0-11.776-9.557-21.333-21.333-21.333zM630.101 149.333c-7.467 0-14.72 3.925-18.645 10.923l-310.101 554.667c-5.717 10.283-2.048 23.296 8.235 29.056 10.283 5.717 23.296 2.048 29.056-8.192l310.101-554.667c5.76-10.283 2.048-23.296-8.192-29.056-3.328-1.835-6.912-2.731-10.453-2.731zM704 106.667c-58.795 0-106.667 47.872-106.667 106.667s47.872 106.667 106.667 106.667 106.667-47.872 106.667-106.667-47.872-106.667-106.667-106.667zM704 277.333c-35.285 0-64-28.715-64-64s28.715-64 64-64 64 28.715 64 64-28.715 64-64 64zM351.232 149.333c-3.541 0-7.125 0.896-10.411 2.688-10.283 5.76-13.952 18.731-8.192 29.056l310.101 554.667c5.76 10.24 18.688 13.995 29.056 8.192 10.283-5.76 13.952-18.731 8.192-29.056l-310.101-554.667c-3.925-6.955-11.179-10.88-18.645-10.88zM277.333 106.667c-58.795 0-106.667 47.872-106.667 106.667s47.872 106.667 106.667 106.667 106.667-47.872 106.667-106.667-47.872-106.667-106.667-106.667zM277.333 277.333c-35.285 0-64-28.715-64-64s28.715-64 64-64 64 28.715 64 64-28.715 64-64 64z" />
<glyph unicode="&#xe936;" glyph-name="Database" d="M512 576c-239.232 0-426.667 84.352-426.667 192s187.435 192 426.667 192 426.667-84.352 426.667-192-187.435-192-426.667-192zM512 917.333c-226.304 0-384-78.72-384-149.333s157.696-149.333 384-149.333 384 78.72 384 149.333-157.696 149.333-384 149.333zM512 362.667c-239.232 0-426.667 84.352-426.667 192 0 11.776 9.557 21.333 21.333 21.333s21.333-9.557 21.333-21.333c0-70.613 157.696-149.333 384-149.333s384 78.72 384 149.333c0 11.776 9.557 21.333 21.333 21.333s21.333-9.557 21.333-21.333c0-107.648-187.435-192-426.667-192zM512 149.333c-239.232 0-426.667 84.352-426.667 192 0 11.776 9.557 21.333 21.333 21.333s21.333-9.557 21.333-21.333c0-70.613 157.696-149.333 384-149.333s384 78.72 384 149.333c0 11.776 9.557 21.333 21.333 21.333s21.333-9.557 21.333-21.333c0-107.648-187.435-192-426.667-192zM512-64c-239.232 0-426.667 84.352-426.667 192v640c0 11.776 9.557 21.333 21.333 21.333s21.333-9.557 21.333-21.333v-640c0-70.613 157.696-149.333 384-149.333s384 78.72 384 149.333v640c0 11.776 9.557 21.333 21.333 21.333s21.333-9.557 21.333-21.333v-640c0-107.648-187.435-192-426.667-192z" />
<glyph unicode="&#xe937;" glyph-name="Deactivate-Protection" d="M490.624-64c-3.541 0-7.125 0.896-10.325 2.688-16.128 8.917-395.008 221.611-395.008 488.021v462.635c0 8.405 4.949 16.043 12.629 19.456 7.723 3.413 16.725 2.048 22.955-3.584 43.008-38.528 98.56-59.733 156.416-59.733 78.848 0 151.979 39.253 195.669 105.003 3.925 5.931 10.624 9.515 17.749 9.515v0c7.168 0 13.824-3.584 17.792-9.557 43.563-65.749 116.693-105.003 195.541-105.003 57.216 0 112.213 20.736 155.093 58.496 9.429 10.069 30.080 6.997 35.499-6.997 1.152-3.072 1.579-6.315 1.323-9.515v-460.8c0-266.368-378.88-479.104-395.008-488.021-3.2-1.707-6.784-2.603-10.325-2.603zM127.957 846.379v-419.712c0-218.539 302.421-408.917 362.667-444.672 60.203 35.755 362.667 226.347 362.667 444.672v419.669c-44.288-28.288-95.957-43.563-149.248-43.563-83.157 0-160.939 36.949-213.419 100.181-52.395-63.189-130.176-100.181-213.333-100.181-53.333 0-105.003 15.275-149.333 43.605zM618.624 320c-5.461 0-10.923 2.091-15.104 6.229l-256 256c-8.32 8.32-8.32 21.845 0 30.165s21.845 8.32 30.165 0l256-256c8.32-8.32 8.32-21.845 0-30.165-4.139-4.139-9.6-6.229-15.061-6.229zM362.624 320c-5.461 0-10.923 2.091-15.104 6.229-8.32 8.32-8.32 21.845 0 30.165l256 256c8.32 8.32 21.845 8.32 30.165 0s8.32-21.845 0-30.165l-256-256c-4.139-4.139-9.6-6.229-15.061-6.229z" />
<glyph unicode="&#xe938;" glyph-name="Design-Mug" d="M746.667-64h-384c-58.795 0-106.667 47.872-106.667 106.667v469.333c0 11.776 9.557 21.333 21.333 21.333h554.667c11.776 0 21.333-9.557 21.333-21.333v-469.333c0-58.795-47.872-106.667-106.667-106.667zM298.667 490.667v-448c0-35.285 28.715-64 64-64h384c35.285 0 64 28.715 64 64v448h-512zM618.667 490.667c-11.776 0-21.333 9.557-21.333 21.333v405.333h-128v-405.333c0-11.776-9.557-21.333-21.333-21.333s-21.333 9.557-21.333 21.333v426.667c0 11.776 9.557 21.333 21.333 21.333h170.667c11.776 0 21.333-9.557 21.333-21.333v-426.667c0-11.776-9.557-21.333-21.333-21.333zM533.333 576h-85.333c-11.776 0-21.333 9.557-21.333 21.333s9.557 21.333 21.333 21.333h85.333c11.776 0 21.333-9.557 21.333-21.333s-9.557-21.333-21.333-21.333zM490.667 661.333h-42.667c-11.776 0-21.333 9.557-21.333 21.333s9.557 21.333 21.333 21.333h42.667c11.776 0 21.333-9.557 21.333-21.333s-9.557-21.333-21.333-21.333zM533.333 746.667h-85.333c-11.776 0-21.333 9.557-21.333 21.333s9.557 21.333 21.333 21.333h85.333c11.776 0 21.333-9.557 21.333-21.333s-9.557-21.333-21.333-21.333zM490.667 832h-42.667c-11.776 0-21.333 9.557-21.333 21.333s9.557 21.333 21.333 21.333h42.667c11.776 0 21.333-9.557 21.333-21.333s-9.557-21.333-21.333-21.333zM405.333 490.667c-7.509 0-14.763 3.968-18.688 10.965l-106.667 192c-5.717 10.283-2.005 23.253 8.277 29.013 10.283 5.717 23.296 2.005 29.013-8.277l106.667-192c5.717-10.283 2.005-23.253-8.277-29.013-3.243-1.835-6.784-2.688-10.325-2.688zM320 490.667c-8.619 0-16.768 5.291-19.968 13.824l-64 170.667c-4.139 11.051 1.451 23.339 12.459 27.477 11.008 4.053 23.339-1.451 27.477-12.459l64-170.667c4.139-11.051-1.451-23.339-12.459-27.477-2.475-0.939-4.992-1.365-7.509-1.365zM234.667 661.333c-63.829 0-106.667 66.176-106.667 128 0 61.269 49.877 170.667 149.333 170.667 11.776 0 21.333-9.557 21.333-21.333v-64c0-12.331 5.163-19.84 15.104-33.195 12.288-16.555 27.563-37.077 27.563-73.472 0-65.792-40.875-106.667-106.667-106.667zM256 914.603c-58.88-15.573-85.333-93.611-85.333-125.269 0-34.859 22.784-85.333 64-85.333 42.453 0 64 21.547 64 64 0 22.229-8.448 33.621-19.157 48-11.051 14.848-23.509 31.616-23.509 58.667v39.936zM789.333 490.667c-4.053 0-8.149 1.152-11.819 3.584-9.813 6.528-12.459 19.755-5.931 29.568l81.749 122.624v91.947l-93.611-31.189-123.989-165.333c-7.040-9.472-20.437-11.392-29.867-4.267-9.429 7.083-11.349 20.437-4.267 29.867l128 170.667c2.603 3.499 6.229 6.101 10.325 7.424l128 42.667c6.485 2.219 13.611 1.109 19.2-2.901s8.875-10.453 8.875-17.323v-128c0-4.224-1.237-8.32-3.584-11.819l-85.333-128c-4.096-6.187-10.88-9.515-17.749-9.515zM874.667 618.667c-4.053 0-8.149 1.152-11.819 3.584l-128 85.333c-9.813 6.528-12.459 19.755-5.931 29.568 6.485 9.813 19.712 12.459 29.568 5.931l128-85.333c9.813-6.528 12.459-19.755 5.931-29.568-4.096-6.187-10.88-9.515-17.749-9.515zM277.333 149.333h-42.667c-82.347 0-149.333 66.987-149.333 149.333s66.987 149.333 149.333 149.333h42.667c11.776 0 21.333-9.557 21.333-21.333s-9.557-21.333-21.333-21.333h-42.667c-58.795 0-106.667-47.872-106.667-106.667s47.872-106.667 106.667-106.667h42.667c11.776 0 21.333-9.557 21.333-21.333s-9.557-21.333-21.333-21.333z" />
<glyph unicode="&#xe939;" glyph-name="Design" d="M298.667 426.667c-5.461 0-10.923 2.091-15.104 6.229l-277.333 277.333c-8.32 8.32-8.32 21.845 0 30.165l213.333 213.333c8.32 8.32 21.845 8.32 30.165 0l277.333-277.333c8.32-8.32 8.32-21.845 0-30.165s-21.845-8.32-30.165 0l-262.229 262.272-183.168-183.168 262.229-262.229c8.32-8.32 8.32-21.845 0-30.165-4.139-4.181-9.6-6.272-15.061-6.272zM789.333-64c-5.461 0-10.923 2.091-15.104 6.229l-277.333 277.333c-8.32 8.32-8.32 21.845 0 30.165s21.845 8.32 30.165 0l262.229-262.229 183.168 183.168-262.229 262.229c-8.32 8.32-8.32 21.845 0 30.165s21.845 8.32 30.165 0l277.333-277.333c8.32-8.32 8.32-21.845 0-30.165l-213.333-213.333c-4.139-4.139-9.6-6.229-15.061-6.229zM234.667 789.333c-5.461 0-10.923 2.091-15.104 6.229-8.32 8.32-8.32 21.845 0 30.165l64 64c8.32 8.32 21.845 8.32 30.165 0s8.32-21.845 0-30.165l-64-64c-4.139-4.139-9.6-6.229-15.061-6.229zM320 746.667c-5.461 0-10.923 2.091-15.104 6.229-8.32 8.32-8.32 21.845 0 30.165l42.667 42.667c8.32 8.32 21.845 8.32 30.165 0s8.32-21.845 0-30.165l-42.667-42.667c-4.139-4.139-9.6-6.229-15.061-6.229zM362.667 661.333c-5.461 0-10.923 2.091-15.104 6.229-8.32 8.32-8.32 21.845 0 30.165l64 64c8.32 8.32 21.845 8.32 30.165 0s8.32-21.845 0-30.165l-64-64c-4.139-4.139-9.6-6.229-15.061-6.229zM746.667 277.333c-5.461 0-10.923 2.091-15.104 6.229-8.32 8.32-8.32 21.845 0 30.165l64 64c8.32 8.32 21.845 8.32 30.165 0s8.32-21.845 0-30.165l-64-64c-4.139-4.139-9.6-6.229-15.061-6.229zM832 234.667c-5.461 0-10.923 2.091-15.104 6.229-8.32 8.32-8.32 21.845 0 30.165l42.667 42.667c8.32 8.32 21.845 8.32 30.165 0s8.32-21.845 0-30.165l-42.667-42.667c-4.139-4.139-9.6-6.229-15.061-6.229zM874.667 149.333c-5.461 0-10.923 2.091-15.104 6.229-8.32 8.32-8.32 21.845 0 30.165l64 64c8.32 8.32 21.845 8.32 30.165 0s8.32-21.845 0-30.165l-64-64c-4.139-4.139-9.6-6.229-15.061-6.229zM21.333-64c-5.589 0-11.008 2.176-15.104 6.229-5.461 5.461-7.552 13.483-5.419 20.949l85.333 298.667c0.981 3.499 2.859 6.656 5.419 9.216l657.707 657.707c41.6 41.6 109.269 41.6 150.827 0l92.672-92.672c41.6-41.6 41.6-109.269 0-150.827l-657.664-657.707c-2.56-2.56-5.717-4.437-9.216-5.419l-298.667-85.333c-1.963-0.555-3.925-0.811-5.888-0.811zM125.653 244.821l-73.259-256.427 256.427 73.259 653.781 653.781c24.96 24.96 24.96 65.536 0 90.496l-92.672 92.672c-24.96 24.96-65.536 24.96-90.496 0l-653.781-653.781zM320 42.667v0zM320 21.333c-5.461 0-10.923 2.091-15.104 6.229-8.32 8.32-8.32 21.845 0 30.165l657.707 657.707c24.96 24.96 24.96 65.536 0 90.496l-92.672 92.672c-24.96 24.96-65.536 24.96-90.496 0l-657.664-657.707c-8.32-8.32-21.845-8.32-30.165 0s-8.32 21.845 0 30.165l657.664 657.707c41.6 41.6 109.269 41.6 150.827 0l92.672-92.672c41.6-41.6 41.6-109.269 0-150.827l-657.664-657.707c-4.181-4.139-9.643-6.229-15.104-6.229zM320 21.333c-5.461 0-10.923 2.091-15.104 6.229l-213.333 213.333c-8.32 8.32-8.32 21.845 0 30.165s21.845 8.32 30.165 0l213.333-213.333c8.32-8.32 8.32-21.845 0-30.165-4.139-4.139-9.6-6.229-15.061-6.229zM277.333 192c-5.461 0-10.923 2.091-15.104 6.229-8.32 8.32-8.32 21.845 0 30.165l597.333 597.333c8.32 8.32 21.845 8.32 30.165 0s8.32-21.845 0-30.165l-597.333-597.333c-4.139-4.139-9.6-6.229-15.061-6.229z" />
<glyph unicode="&#xe93a;" glyph-name="Diamond" d="M512-21.333c-7.040 0-13.568 3.456-17.579 9.259l-469.333 682.667c-6.272 9.088-4.565 21.419 3.925 28.459l256 213.333c3.84 3.2 8.661 4.949 13.653 4.949h426.667c4.992 0 9.813-1.749 13.653-4.949l256-213.333c8.448-7.040 10.155-19.371 3.925-28.459l-469.333-682.667c-4.011-5.803-10.539-9.259-17.579-9.259zM71.253 678.699l440.747-641.024 440.747 641.024-235.136 195.968h-411.221l-235.136-195.968zM981.333 661.333h-938.667c-11.776 0-21.333 9.557-21.333 21.333s9.557 21.333 21.333 21.333h938.667c11.776 0 21.333-9.557 21.333-21.333s-9.557-21.333-21.333-21.333zM512-21.333c-9.344 0-17.877 6.187-20.523 15.531l-192 682.667c-1.621 5.675-0.811 11.776 2.219 16.768l128 213.333c6.101 10.112 19.285 13.397 29.269 7.339 10.112-6.059 13.397-19.157 7.339-29.269l-123.264-205.44 189.483-673.792c3.157-11.392-3.413-23.125-14.763-26.325-1.92-0.555-3.84-0.811-5.76-0.811zM512-21.333c-1.92 0-3.84 0.256-5.803 0.811-11.349 3.2-17.92 14.976-14.763 26.325l189.525 673.792-123.264 205.44c-6.101 10.069-2.773 23.211 7.339 29.269 10.027 6.101 23.168 2.773 29.269-7.339l128-213.333c3.029-4.992 3.84-11.093 2.261-16.768l-192-682.667c-2.688-9.344-11.221-15.531-20.565-15.531z" />
<glyph unicode="&#xe93b;" glyph-name="Dice" d="M490.667-64c-3.285 0-6.528 0.768-9.557 2.261l-469.333 234.667c-7.211 3.627-11.776 11.008-11.776 19.072v533.333c0 8.363 4.907 15.957 12.501 19.413l469.333 213.333c5.632 2.603 12.032 2.603 17.664 0l469.333-213.333c7.595-3.456 12.501-11.051 12.501-19.413v-533.333c0-8.064-4.565-15.445-11.776-19.072l-469.333-234.667c-3.029-1.493-6.272-2.261-9.557-2.261zM42.667 205.184l448-224 448 224v506.411l-448 203.648-448-203.648v-506.411zM490.667 490.667c-3.029 0-6.016 0.64-8.832 1.92l-469.333 213.333c-10.709 4.864-15.445 17.493-10.581 28.245s17.408 15.403 28.245 10.581l460.501-209.323 460.501 209.323c10.795 4.821 23.381 0.171 28.245-10.581s0.128-23.381-10.581-28.245l-469.333-213.333c-2.816-1.28-5.803-1.92-8.832-1.92zM490.667-64c-11.776 0-21.333 9.557-21.333 21.333v554.667c0 11.776 9.557 21.333 21.333 21.333s21.333-9.557 21.333-21.333v-554.667c0-11.776-9.557-21.333-21.333-21.333zM490.667 682.667c-37.077 0-64 17.963-64 42.667s26.923 42.667 64 42.667 64-17.963 64-42.667-26.923-42.667-64-42.667zM490.667 725.333v0zM384 362.667c-24.747 0-42.667 26.923-42.667 64s17.92 64 42.667 64 42.667-26.923 42.667-64-17.92-64-42.667-64zM256 287.061c-24.747 0-42.667 26.923-42.667 64s17.92 64 42.667 64 42.667-26.923 42.667-64-17.92-64-42.667-64zM128 213.333c-24.747 0-42.667 26.923-42.667 64s17.92 64 42.667 64 42.667-26.923 42.667-64-17.92-64-42.667-64zM618.667 341.333c-24.747 0-42.667 26.923-42.667 64s17.92 64 42.667 64 42.667-26.923 42.667-64-17.92-64-42.667-64zM832 234.667c-24.747 0-42.667 26.923-42.667 64s17.92 64 42.667 64 42.667-26.923 42.667-64-17.92-64-42.667-64z" />
<glyph unicode="&#xe93c;" glyph-name="Disc" d="M512-64c-282.325 0-512 229.675-512 512s229.675 512 512 512 512-229.675 512-512-229.675-512-512-512zM512 917.333c-258.773 0-469.333-210.56-469.333-469.333s210.56-469.333 469.333-469.333 469.333 210.56 469.333 469.333-210.56 469.333-469.333 469.333zM512 234.667c-117.632 0-213.333 95.701-213.333 213.333s95.701 213.333 213.333 213.333 213.333-95.701 213.333-213.333-95.701-213.333-213.333-213.333zM512 618.667c-94.123 0-170.667-76.544-170.667-170.667s76.544-170.667 170.667-170.667 170.667 76.544 170.667 170.667-76.544 170.667-170.667 170.667zM512 405.333c-23.509 0-42.667 19.115-42.667 42.667s19.157 42.667 42.667 42.667 42.667-19.115 42.667-42.667-19.157-42.667-42.667-42.667zM512 448v0c0 0 0 0 0 0zM106.667 426.667c-11.776 0-21.333 9.557-21.333 21.333 0 235.264 191.403 426.667 426.667 426.667 11.776 0 21.333-9.557 21.333-21.333s-9.557-21.333-21.333-21.333c-211.712 0-384-172.245-384-384 0-11.776-9.557-21.333-21.333-21.333z" />
<glyph unicode="&#xe93d;" glyph-name="Door" d="M832-64h-682.667c-11.776 0-21.333 9.557-21.333 21.333v938.667c0 35.285 28.715 64 64 64h597.333c35.285 0 64-28.715 64-64v-938.667c0-11.776-9.557-21.333-21.333-21.333zM170.667-21.333h640v917.333c0 11.733-9.6 21.333-21.333 21.333h-597.333c-11.733 0-21.333-9.6-21.333-21.333v-917.333zM746.667-64h-512c-11.776 0-21.333 9.557-21.333 21.333v896c0 11.776 9.557 21.333 21.333 21.333h512c11.776 0 21.333-9.557 21.333-21.333v-896c0-11.776-9.557-21.333-21.333-21.333zM256-21.333h469.333v853.333h-469.333v-853.333zM576 362.667c-11.776 0-21.333 9.557-21.333 21.333 0 35.285 28.715 64 64 64h42.667c11.776 0 21.333-9.557 21.333-21.333s-9.557-21.333-21.333-21.333h-42.667c-11.733 0-21.333-9.6-21.333-21.333 0-11.776-9.557-21.333-21.333-21.333z" />
<glyph unicode="&#xe93e;" glyph-name="Download-Cloud" d="M789.333 234.667h-170.667c-11.776 0-21.333 9.557-21.333 21.333s9.557 21.333 21.333 21.333h170.667c105.856 0 192 86.144 192 192s-86.144 192-192 192c-10.624 0-22.955 7.467-24.448 18.005-19.328 135.68-137.216 237.995-274.219 237.995-152.917 0-277.333-124.416-277.333-277.333 0-11.989 1.024-24.704 3.243-39.979 0.896-6.101-0.939-12.331-4.992-16.981-4.693-5.461-13.696-7.979-20.992-6.997-80.939-0.043-147.925-67.029-147.925-149.376s66.987-149.333 149.333-149.333h170.667c11.776 0 21.333-9.557 21.333-21.333s-9.557-21.333-21.333-21.333h-170.667c-105.856 0-192 86.144-192 192 0 98.987 75.307 180.693 171.605 190.933-0.64 7.765-0.939 15.147-0.939 22.4 0 176.469 143.531 320 320 320 152.064 0 283.733-109.269 313.429-256.939 124.075-8.789 219.904-110.251 219.904-233.728 0-129.365-105.301-234.667-234.667-234.667zM490.667-64c-0.427 0-0.811 0-1.195 0.043v0h-0.043c-5.035 0.299-9.984 2.389-13.824 6.229l-170.667 170.667c-4.181 4.139-6.272 9.6-6.272 15.061s2.091 10.923 6.229 15.104c8.32 8.32 21.845 8.32 30.165 0l134.272-134.272v588.501c0 11.776 9.557 21.333 21.333 21.333s21.333-9.557 21.333-21.333v-588.501l134.229 134.229c8.32 8.32 21.845 8.32 30.165 0s8.32-21.845 0-30.165l-170.539-170.539c-0.427-0.469-0.896-0.896-1.365-1.28 0 0 0 0-0.043 0v0c-3.285-2.816-7.253-4.437-11.349-4.949 0 0 0 0-0.043 0v0c-0.768-0.085-1.579-0.128-2.389-0.128z" />
<glyph unicode="&#xe93f;" glyph-name="Download" d="M917.333-64h-853.333c-35.285 0-64 28.715-64 64v213.333c0 11.776 9.557 21.333 21.333 21.333s21.333-9.557 21.333-21.333v-213.333c0-11.733 9.557-21.333 21.333-21.333h853.333c11.776 0 21.333 9.6 21.333 21.333v213.333c0 11.776 9.557 21.333 21.333 21.333s21.333-9.557 21.333-21.333v-213.333c0-35.285-28.715-64-64-64zM490.667 106.667c-11.776 0-21.333 9.557-21.333 21.333v810.667c0 11.776 9.557 21.333 21.333 21.333s21.333-9.557 21.333-21.333v-810.667c0-11.776-9.557-21.333-21.333-21.333zM490.667 106.667c-5.461 0-10.923 2.091-15.104 6.229l-256 256c-8.32 8.32-8.32 21.845 0 30.165s21.845 8.32 30.165 0l240.896-240.896 240.896 240.896c8.32 8.32 21.845 8.32 30.165 0s8.32-21.845 0-30.165l-256-256c-4.096-4.139-9.557-6.229-15.019-6.229z" />
<glyph unicode="&#xe940;" glyph-name="Drive" d="M938.667 64h-853.333c-47.061 0-85.333 38.272-85.333 85.333v170.667c0 47.061 38.272 85.333 85.333 85.333h853.333c47.061 0 85.333-38.272 85.333-85.333v-170.667c0-47.061-38.272-85.333-85.333-85.333zM85.333 362.667c-23.509 0-42.667-19.115-42.667-42.667v-170.667c0-23.552 19.157-42.667 42.667-42.667h853.333c23.509 0 42.667 19.115 42.667 42.667v170.667c0 23.552-19.157 42.667-42.667 42.667h-853.333zM996.907 325.12c-7.851 0-15.36 4.352-19.115 11.776l-212.523 425.301c-0.597 0.853-1.067 1.749-1.536 2.645-7.168 15.104-21.888 24.491-38.4 24.491h-426.667c-16.512 0-31.232-9.387-38.4-24.491-0.469-0.981-0.981-1.92-1.579-2.816l-212.437-425.131c-5.248-10.539-18.048-14.891-28.629-9.557-10.539 5.248-14.805 18.091-9.557 28.629l213.547 427.349c0.427 0.853 0.896 1.621 1.408 2.432 14.592 28.16 43.947 46.251 75.648 46.251h426.667c31.744 0 61.184-18.133 75.733-46.421 0.512-0.768 0.939-1.493 1.323-2.261l213.547-427.349c5.291-10.539 0.981-23.381-9.557-28.629-3.029-1.493-6.272-2.219-9.472-2.219zM128 234.667c-23.509 0-42.667 19.115-42.667 42.667s19.157 42.667 42.667 42.667 42.667-19.115 42.667-42.667-19.157-42.667-42.667-42.667zM128 277.376c0 0 0-0.043 0 0v0zM256 234.667c-23.509 0-42.667 19.115-42.667 42.667s19.157 42.667 42.667 42.667 42.667-19.115 42.667-42.667-19.157-42.667-42.667-42.667zM256 277.376c0 0 0-0.043 0 0v0zM917.333 149.333h-810.667c-11.776 0-21.333 9.557-21.333 21.333s9.557 21.333 21.333 21.333h810.667c11.776 0 21.333-9.557 21.333-21.333s-9.557-21.333-21.333-21.333z" />
</font>
</defs>
</svg>
